Pacifico-Bold-FINAL.ufo
<glyph name="quotesingle" format="1">
  <advance width="300"/>
  <unicode hex="0027"/>
  <outline>
    <contour>
      <point x="188" y="409" type="curve" smooth="yes"/>
      <point x="188" y="393"/>
      <point x="197" y="383"/>
      <point x="217" y="383" type="curve" smooth="yes"/>
      <point x="233" y="383"/>
      <point x="244" y="393"/>
      <point x="251" y="412" type="curve" smooth="yes"/>
      <point x="271" y="463"/>
      <point x="302" y="554"/>
      <point x="318" y="596" type="curve" smooth="yes"/>
      <point x="320" y="601"/>
      <point x="320" y="605"/>
      <point x="320" y="609" type="curve" smooth="yes"/>
      <point x="320" y="634"/>
      <point x="293" y="642"/>
      <point x="268" y="642" type="curve" smooth="yes"/>
      <point x="244" y="642"/>
      <point x="229" y="631"/>
      <point x="225" y="612" type="curve" smooth="yes"/>
      <point x="213" y="553"/>
      <point x="195" y="453"/>
      <point x="189" y="421" type="curve" smooth="yes"/>
      <point x="188" y="417"/>
      <point x="188" y="413"/>
    </contour>
  </outline>
</glyph>
<glyph name="asterisk" format="1">
  <advance width="350"/>
  <unicode hex="002A"/>
  <outline>
    <contour>
      <point x="145" y="291" type="curve" smooth="yes"/>
      <point x="167" y="291"/>
      <point x="192" y="304"/>
      <point x="192" y="327" type="curve" smooth="yes"/>
      <point x="192" y="368"/>
      <point x="191" y="371"/>
      <point x="191" y="397" type="curve" smooth="yes"/>
      <point x="191" y="421" type="line"/>
      <point x="227" y="383"/>
      <point x="221" y="391"/>
      <point x="260" y="354" type="curve" smooth="yes"/>
      <point x="265" y="349"/>
      <point x="271" y="346"/>
      <point x="277" y="346" type="curve" smooth="yes"/>
      <point x="299" y="346"/>
      <point x="321" y="379"/>
      <point x="321" y="403" type="curve" smooth="yes"/>
      <point x="321" y="415"/>
      <point x="315" y="426"/>
      <point x="300" y="429" type="curve" smooth="yes"/>
      <point x="256" y="437"/>
      <point x="238" y="448"/>
      <point x="226" y="451" type="curve"/>
      <point x="257" y="456"/>
      <point x="343" y="456"/>
      <point x="343" y="496" type="curve" smooth="yes"/>
      <point x="343" y="520"/>
      <point x="314" y="541"/>
      <point x="293" y="541" type="curve" smooth="yes"/>
      <point x="289" y="541"/>
      <point x="286" y="541"/>
      <point x="283" y="539" type="curve" smooth="yes"/>
      <point x="260" y="525"/>
      <point x="230" y="507"/>
      <point x="205" y="493" type="curve"/>
      <point x="215" y="521"/>
      <point x="230" y="556"/>
      <point x="239" y="583" type="curve" smooth="yes"/>
      <point x="240" y="586"/>
      <point x="241" y="590"/>
      <point x="241" y="593" type="curve" smooth="yes"/>
      <point x="241" y="611"/>
      <point x="224" y="628"/>
      <point x="206" y="628" type="curve" smooth="yes"/>
      <point x="184" y="628"/>
      <point x="160" y="616"/>
      <point x="160" y="592" type="curve" smooth="yes"/>
      <point x="160" y="497" type="line"/>
      <point x="140" y="517"/>
      <point x="126" y="524"/>
      <point x="101" y="560" type="curve" smooth="yes"/>
      <point x="95" y="568"/>
      <point x="86" y="571"/>
      <point x="77" y="571" type="curve" smooth="yes"/>
      <point x="51" y="571"/>
      <point x="20" y="547"/>
      <point x="20" y="523" type="curve" smooth="yes"/>
      <point x="20" y="511"/>
      <point x="29" y="498"/>
      <point x="51" y="490" type="curve" smooth="yes"/>
      <point x="94" y="482"/>
      <point x="99" y="476"/>
      <point x="121" y="467" type="curve"/>
      <point x="74" y="458"/>
      <point x="7" y="461"/>
      <point x="7" y="422" type="curve" smooth="yes"/>
      <point x="7" y="401"/>
      <point x="32" y="376"/>
      <point x="54" y="376" type="curve" smooth="yes"/>
      <point x="58" y="376"/>
      <point x="63" y="377"/>
      <point x="67" y="379" type="curve" smooth="yes"/>
      <point x="92" y="392"/>
      <point x="121" y="408"/>
      <point x="145" y="422" type="curve"/>
      <point x="131" y="393"/>
      <point x="109" y="356"/>
      <point x="109" y="322" type="curve" smooth="yes"/>
      <point x="109" y="301"/>
      <point x="125" y="291"/>
    </contour>
  </outline>
</glyph>
<glyph name="four" format="1">
  <advance width="417"/>
  <unicode hex="0034"/>
  <outline>
    <contour>
      <point x="254" y="-21" type="curve" smooth="yes"/>
      <point x="280" y="-21"/>
      <point x="295" y="-18"/>
      <point x="307" y="32" type="curve" smooth="yes"/>
      <point x="315" y="61" type="line"/>
      <point x="322" y="61"/>
      <point x="359" y="63"/>
      <point x="367" y="63" type="curve" smooth="yes"/>
      <point x="393" y="64"/>
      <point x="406" y="88"/>
      <point x="406" y="110" type="curve" smooth="yes"/>
      <point x="406" y="127"/>
      <point x="398" y="142"/>
      <point x="381" y="142" type="curve" smooth="yes"/>
      <point x="380" y="142" type="line"/>
      <point x="380" y="142"/>
      <point x="348" y="143"/>
      <point x="333" y="143" type="curve"/>
      <point x="341" y="180"/>
      <point x="363" y="265"/>
      <point x="369" y="289" type="curve" smooth="yes"/>
      <point x="369" y="291"/>
      <point x="370" y="293"/>
      <point x="370" y="295" type="curve" smooth="yes"/>
      <point x="370" y="312"/>
      <point x="349" y="316"/>
      <point x="333" y="316" type="curve" smooth="yes"/>
      <point x="305" y="316"/>
      <point x="290" y="302"/>
      <point x="282" y="277" type="curve" smooth="yes"/>
      <point x="275.28" y="254.919"/>
      <point x="251.047" y="172.926"/>
      <point x="242.927" y="141.634" type="curve"/>
      <point x="239.074" y="144.283"/>
      <point x="225.396" y="145"/>
      <point x="211" y="145" type="curve" smooth="yes"/>
      <point x="189" y="145"/>
      <point x="167" y="143"/>
      <point x="167" y="143" type="curve"/>
      <point x="204" y="261"/>
      <point x="233" y="357"/>
      <point x="257" y="440" type="curve" smooth="yes"/>
      <point x="258" y="443"/>
      <point x="258" y="446"/>
      <point x="258" y="449" type="curve" smooth="yes"/>
      <point x="258" y="468"/>
      <point x="237" y="478"/>
      <point x="216" y="478" type="curve" smooth="yes"/>
      <point x="198" y="478"/>
      <point x="179" y="471"/>
      <point x="174" y="455" type="curve" smooth="yes"/>
      <point x="148" y="378"/>
      <point x="91" y="210"/>
      <point x="69" y="132" type="curve" smooth="yes"/>
      <point x="65" y="117"/>
      <point x="63" y="105"/>
      <point x="63" y="95" type="curve" smooth="yes"/>
      <point x="63" y="71"/>
      <point x="76" y="62"/>
      <point x="97" y="61" type="curve" smooth="yes"/>
      <point x="97" y="61"/>
      <point x="202" y="60"/>
      <point x="225" y="60" type="curve"/>
      <point x="218" y="30" type="line" smooth="yes"/>
      <point x="217" y="22"/>
      <point x="216" y="15"/>
      <point x="216" y="9" type="curve" smooth="yes"/>
      <point x="216" y="-8"/>
      <point x="223" y="-20"/>
    </contour>
  </outline>
</glyph>
<glyph name="colon" format="1">
  <advance width="240"/>
  <unicode hex="003A"/>
  <outline>
    <contour>
      <point x="186" y="229" type="curve" smooth="yes"/>
      <point x="231" y="229"/>
      <point x="256" y="260"/>
      <point x="256" y="302" type="curve" smooth="yes"/>
      <point x="256" y="342"/>
      <point x="232" y="364"/>
      <point x="192" y="364" type="curve" smooth="yes"/>
      <point x="148" y="364"/>
      <point x="124" y="334"/>
      <point x="124" y="292" type="curve" smooth="yes"/>
      <point x="124" y="253"/>
      <point x="147" y="229"/>
    </contour>
    <contour>
      <point x="166" y="0" type="curve" smooth="yes"/>
      <point x="210" y="0"/>
      <point x="235" y="29"/>
      <point x="235" y="71" type="curve" smooth="yes"/>
      <point x="235" y="112"/>
      <point x="213" y="134"/>
      <point x="172" y="134" type="curve" smooth="yes"/>
      <point x="128" y="134"/>
      <point x="102" y="103"/>
      <point x="102" y="61" type="curve" smooth="yes"/>
      <point x="102" y="22"/>
      <point x="125" y="0"/>
    </contour>
  </outline>
</glyph>
<glyph name="at" format="1">
  <advance width="766"/>
  <unicode hex="0040"/>
  <outline>
    <contour>
      <point x="457" y="195" type="line" smooth="yes"/>
      <point x="443" y="146"/>
      <point x="401" y="72"/>
      <point x="327" y="72" type="curve" smooth="yes"/>
      <point x="283" y="72"/>
      <point x="273" y="101"/>
      <point x="273" y="128" type="curve" smooth="yes"/>
      <point x="273" y="256"/>
      <point x="375" y="352"/>
      <point x="484" y="352" type="curve" smooth="yes"/>
      <point x="490" y="352"/>
      <point x="497" y="352"/>
      <point x="503" y="351" type="curve"/>
    </contour>
    <contour>
      <point x="459" y="76" type="curve"/>
      <point x="468" y="40"/>
      <point x="499" y="21"/>
      <point x="541" y="21" type="curve" smooth="yes"/>
      <point x="637" y="21"/>
      <point x="731" y="137"/>
      <point x="731" y="294" type="curve" smooth="yes"/>
      <point x="731" y="456"/>
      <point x="631" y="547"/>
      <point x="462" y="547" type="curve" smooth="yes"/>
      <point x="249" y="547"/>
      <point x="33" y="362"/>
      <point x="33" y="123" type="curve" smooth="yes"/>
      <point x="33" y="-17"/>
      <point x="117" y="-145"/>
      <point x="333" y="-145" type="curve" smooth="yes"/>
      <point x="432" y="-145"/>
      <point x="540" y="-119"/>
      <point x="617" y="-75" type="curve" smooth="yes"/>
      <point x="631" y="-67"/>
      <point x="636" y="-54"/>
      <point x="636" y="-42" type="curve" smooth="yes"/>
      <point x="636" y="-23"/>
      <point x="623" y="-5"/>
      <point x="604" y="-5" type="curve" smooth="yes"/>
      <point x="598" y="-5"/>
      <point x="592" y="-7"/>
      <point x="585" y="-11" type="curve" smooth="yes"/>
      <point x="509" y="-56"/>
      <point x="423" y="-73"/>
      <point x="343" y="-73" type="curve" smooth="yes"/>
      <point x="168" y="-73"/>
      <point x="113" y="19"/>
      <point x="113" y="121" type="curve" smooth="yes"/>
      <point x="113" y="302"/>
      <point x="258" y="478"/>
      <point x="462" y="478" type="curve" smooth="yes"/>
      <point x="594" y="478"/>
      <point x="661" y="413"/>
      <point x="661" y="287" type="curve" smooth="yes"/>
      <point x="661" y="217"/>
      <point x="609" y="84"/>
      <point x="542" y="84" type="curve" smooth="yes"/>
      <point x="528" y="84"/>
      <point x="520" y="89"/>
      <point x="520" y="106" type="curve" smooth="yes"/>
      <point x="520" y="111"/>
      <point x="521" y="118"/>
      <point x="523" y="126" type="curve" smooth="yes"/>
      <point x="579" y="347" type="line" smooth="yes"/>
      <point x="582" y="357"/>
      <point x="583" y="366"/>
      <point x="583" y="373" type="curve" smooth="yes"/>
      <point x="583" y="397"/>
      <point x="570" y="409"/>
      <point x="544" y="409" type="curve" smooth="yes"/>
      <point x="541" y="409" type="line" smooth="yes"/>
      <point x="521" y="409" type="line" smooth="yes"/>
      <point x="523" y="412"/>
      <point x="523" y="415"/>
      <point x="523" y="417" type="curve" smooth="yes"/>
      <point x="523" y="426"/>
      <point x="512" y="426"/>
      <point x="505" y="426" type="curve" smooth="yes"/>
      <point x="367" y="426"/>
      <point x="199" y="298"/>
      <point x="199" y="125" type="curve" smooth="yes"/>
      <point x="199" y="50"/>
      <point x="255" y="5"/>
      <point x="329" y="5" type="curve" smooth="yes"/>
      <point x="384" y="5"/>
      <point x="423" y="30"/>
    </contour>
  </outline>
</glyph>
<glyph name="F" format="1">
  <advance width="565"/>
  <unicode hex="0046"/>
  <outline>
    <contour>
      <point x="507" y="708" type="move" name="top"/>
    </contour>
    <contour>
      <point x="304" y="248" type="line"/>
      <point x="254" y="84"/>
      <point x="196" y="46"/>
      <point x="138" y="46" type="curve" smooth="yes"/>
      <point x="100" y="46"/>
      <point x="68" y="65"/>
      <point x="49" y="80" type="curve" smooth="yes"/>
      <point x="45" y="83"/>
      <point x="41" y="85"/>
      <point x="36" y="85" type="curve" smooth="yes"/>
      <point x="12" y="85"/>
      <point x="-19" y="47"/>
      <point x="-19" y="18" type="curve" smooth="yes"/>
      <point x="-19" y="11"/>
      <point x="-17" y="4"/>
      <point x="-13" y="-1" type="curve" smooth="yes"/>
      <point x="18" y="-37"/>
      <point x="76" y="-66"/>
      <point x="134" y="-66" type="curve" smooth="yes"/>
      <point x="310" y="-66"/>
      <point x="354" y="75"/>
      <point x="407" y="248" type="curve"/>
      <point x="442" y="248"/>
      <point x="501" y="251"/>
      <point x="543" y="255" type="curve" smooth="yes"/>
      <point x="561" y="257"/>
      <point x="567" y="274"/>
      <point x="567" y="295" type="curve" smooth="yes"/>
      <point x="567" y="321"/>
      <point x="558" y="337"/>
      <point x="539" y="337" type="curve" smooth="yes"/>
      <point x="527" y="337"/>
      <point x="440" y="336"/>
      <point x="425" y="336" type="curve"/>
      <point x="451" y="421"/>
      <point x="477" y="548"/>
      <point x="480" y="612" type="curve"/>
      <point x="500" y="613"/>
      <point x="522" y="614"/>
      <point x="543" y="614" type="curve" smooth="yes"/>
      <point x="642" y="614"/>
      <point x="748" y="604"/>
      <point x="789" y="597" type="curve" smooth="yes"/>
      <point x="792" y="597" type="line" smooth="yes"/>
      <point x="810" y="597"/>
      <point x="817" y="628"/>
      <point x="817" y="649" type="curve" smooth="yes"/>
      <point x="817" y="691"/>
      <point x="752" y="710"/>
      <point x="599" y="710" type="curve" smooth="yes"/>
      <point x="571" y="710"/>
      <point x="541" y="709"/>
      <point x="507" y="708" type="curve" smooth="yes"/>
      <point x="131" y="694"/>
      <point x="29" y="501"/>
      <point x="29" y="376" type="curve" smooth="yes"/>
      <point x="29" y="332"/>
      <point x="41" y="297"/>
      <point x="59" y="280" type="curve"/>
      <point x="72" y="259"/>
      <point x="107" y="252"/>
      <point x="136" y="252" type="curve" smooth="yes"/>
      <point x="162" y="252"/>
      <point x="183" y="257"/>
      <point x="183" y="265" type="curve" smooth="yes"/>
      <point x="183" y="266"/>
      <point x="183" y="268"/>
      <point x="181" y="270" type="curve" smooth="yes"/>
      <point x="157" y="292"/>
      <point x="142" y="332"/>
      <point x="142" y="376" type="curve" smooth="yes"/>
      <point x="142" y="467"/>
      <point x="207" y="579"/>
      <point x="396" y="604" type="curve"/>
      <point x="389" y="585"/>
      <point x="344" y="402"/>
      <point x="324" y="333" type="curve"/>
      <point x="286" y="332"/>
      <point x="246" y="326"/>
      <point x="246" y="286" type="curve" smooth="yes"/>
      <point x="247" y="260"/>
      <point x="260" y="248"/>
      <point x="286" y="248" type="curve" smooth="yes"/>
    </contour>
  </outline>
</glyph>
<glyph name="Q" format="1">
  <advance width="736"/>
  <unicode hex="0051"/>
  <outline>
    <component base="O"/>
    <contour>
      <point x="1069" y="-271" type="curve" smooth="yes"/>
      <point x="1069" y="-249"/>
      <point x="1040" y="-232"/>
      <point x="1022" y="-232" type="curve" smooth="yes"/>
      <point x="1006" y="-232"/>
      <point x="998" y="-240"/>
      <point x="990" y="-250" type="curve" smooth="yes"/>
      <point x="977" y="-266"/>
      <point x="962" y="-284"/>
      <point x="948" y="-294" type="curve" smooth="yes"/>
      <point x="939" y="-301"/>
      <point x="926" y="-305"/>
      <point x="910" y="-305" type="curve" smooth="yes"/>
      <point x="831" y="-305"/>
      <point x="671" y="-213"/>
      <point x="413" y="2" type="curve" smooth="yes"/>
      <point x="411" y="4"/>
      <point x="407" y="4"/>
      <point x="404" y="4" type="curve" smooth="yes"/>
      <point x="383" y="4"/>
      <point x="350" y="-28"/>
      <point x="350" y="-47" type="curve" smooth="yes"/>
      <point x="350" y="-51"/>
      <point x="352" y="-55"/>
      <point x="355" y="-57" type="curve" smooth="yes"/>
      <point x="593" y="-248"/>
      <point x="770" y="-406"/>
      <point x="899" y="-406" type="curve" smooth="yes"/>
      <point x="929" y="-406"/>
      <point x="955" y="-398"/>
      <point x="980" y="-380" type="curve" smooth="yes"/>
      <point x="1050" y="-328"/>
      <point x="1066" y="-287"/>
      <point x="1068" y="-277" type="curve" smooth="yes"/>
      <point x="1068" y="-275"/>
      <point x="1069" y="-273"/>
    </contour>
  </outline>
</glyph>
<glyph name="R" format="1">
  <advance width="750"/>
  <unicode hex="0052"/>
  <outline>
    <contour>
      <point x="517" y="708" type="move" name="top"/>
    </contour>
    <contour>
      <point x="972" y="-107" type="curve" smooth="yes"/>
      <point x="972" y="-88"/>
      <point x="949" y="-64"/>
      <point x="929" y="-64" type="curve" smooth="yes"/>
      <point x="925" y="-64"/>
      <point x="921" y="-66"/>
      <point x="918" y="-69" type="curve" smooth="yes"/>
      <point x="875" y="-114"/>
      <point x="848" y="-123"/>
      <point x="823" y="-123" type="curve" smooth="yes"/>
      <point x="816" y="-123"/>
      <point x="809" y="-123"/>
      <point x="803" y="-122" type="curve" smooth="yes"/>
      <point x="703" y="-109"/>
      <point x="590" y="151"/>
      <point x="548" y="298" type="curve"/>
      <point x="681" y="329"/>
      <point x="748" y="416"/>
      <point x="748" y="501" type="curve" smooth="yes"/>
      <point x="748" y="607"/>
      <point x="650" y="710"/>
      <point x="452" y="710" type="curve" smooth="yes"/>
      <point x="234" y="710"/>
      <point x="91" y="515"/>
      <point x="78" y="182" type="curve" smooth="yes"/>
      <point x="77" y="164"/>
      <point x="76" y="147"/>
      <point x="76" y="131" type="curve" smooth="yes"/>
      <point x="76" y="-43"/>
      <point x="137" y="-144"/>
      <point x="225" y="-145" type="curve" smooth="yes"/>
      <point x="388.675" y="-145"/>
      <point x="395.446" y="94.8903"/>
      <point x="417.686" y="285.827" type="curve"/>
      <point x="436.475" y="286.791"/>
      <point x="453.043" y="288.336"/>
      <point x="463" y="289" type="curve"/>
      <point x="474" y="144"/>
      <point x="631" y="-230"/>
      <point x="801" y="-230" type="curve" smooth="yes"/>
      <point x="902" y="-230"/>
      <point x="965" y="-135"/>
      <point x="971" y="-112" type="curve" smooth="yes"/>
      <point x="972" y="-111"/>
      <point x="972" y="-109"/>
    </contour>
    <contour>
      <point x="342.027" y="366.662" type="curve"/>
      <point x="324.461" y="369.105"/>
      <point x="308.952" y="371"/>
      <point x="299" y="371" type="curve" smooth="yes"/>
      <point x="283" y="371"/>
      <point x="283" y="346"/>
      <point x="283" y="333" type="curve" smooth="yes"/>
      <point x="284.22" y="308.609"/>
      <point x="304.402" y="296.117"/>
      <point x="331.303" y="290.081" type="curve"/>
      <point x="308.058" y="119.477"/>
      <point x="289.412" y="-33.9796"/>
      <point x="249" y="-48" type="curve" smooth="yes"/>
      <point x="244" y="-50"/>
      <point x="240" y="-50"/>
      <point x="236" y="-50" type="curve" smooth="yes"/>
      <point x="196" y="-50"/>
      <point x="183" y="24"/>
      <point x="183" y="164" type="curve" smooth="yes"/>
      <point x="183" y="193" type="line" smooth="yes"/>
      <point x="186" y="441"/>
      <point x="282" y="609"/>
      <point x="458" y="609" type="curve" smooth="yes"/>
      <point x="577" y="609"/>
      <point x="629" y="556"/>
      <point x="630" y="498" type="curve" smooth="yes"/>
      <point x="630" y="431"/>
      <point x="558" y="356"/>
      <point x="437" y="356" type="curve" smooth="yes"/>
      <point x="433.99" y="356"/>
      <point x="430.767" y="356.094"/>
      <point x="427.37" y="356.267" type="curve"/>
      <point x="429.381" y="368.289"/>
      <point x="431.572" y="379.899"/>
      <point x="434" y="391" type="curve" smooth="yes"/>
      <point x="440" y="411"/>
      <point x="480" y="440"/>
      <point x="483" y="476" type="curve" smooth="yes"/>
      <point x="483" y="503"/>
      <point x="468" y="513"/>
      <point x="443" y="514" type="curve" smooth="yes"/>
      <point x="393" y="514"/>
      <point x="354" y="446"/>
      <point x="347" y="400" type="curve" smooth="yes"/>
      <point x="345.303" y="388.913"/>
      <point x="343.647" y="377.79"/>
    </contour>
  </outline>
</glyph>
<glyph name="U" format="1">
  <advance width="632"/>
  <unicode hex="0055"/>
  <outline>
    <contour>
      <point x="507" y="708" type="move" name="top"/>
    </contour>
    <contour>
      <point x="281" y="-69" type="move" name="ogonek"/>
    </contour>
    <contour>
      <point x="487" y="565" type="curve" smooth="yes"/>
      <point x="487" y="593"/>
      <point x="501" y="617"/>
      <point x="531" y="617" type="curve" smooth="yes"/>
      <point x="576" y="617"/>
      <point x="598" y="559"/>
      <point x="598" y="479" type="curve" smooth="yes"/>
      <point x="598" y="471.234"/>
      <point x="597.794" y="463.261"/>
      <point x="597.383" y="455.116" type="curve"/>
      <point x="525.03" y="458.131"/>
      <point x="487" y="519.172"/>
    </contour>
    <contour>
      <point x="691.953" y="479.066" type="curve"/>
      <point x="690.282" y="603.625"/>
      <point x="644.17" y="699"/>
      <point x="547" y="699" type="curve" smooth="yes"/>
      <point x="455" y="699"/>
      <point x="413" y="636"/>
      <point x="413" y="568" type="curve" smooth="yes"/>
      <point x="413" y="480.343"/>
      <point x="479.479" y="381.771"/>
      <point x="588.716" y="381.005" type="curve"/>
      <point x="558.724" y="213.36"/>
      <point x="456.537" y="18"/>
      <point x="289" y="18" type="curve" smooth="yes"/>
      <point x="209" y="18"/>
      <point x="178" y="85"/>
      <point x="178" y="176" type="curve" smooth="yes"/>
      <point x="178" y="293"/>
      <point x="229" y="450"/>
      <point x="293" y="556" type="curve" smooth="yes"/>
      <point x="299" y="565"/>
      <point x="301" y="573"/>
      <point x="301" y="580" type="curve" smooth="yes"/>
      <point x="301" y="598"/>
      <point x="284" y="607"/>
      <point x="263" y="607" type="curve" smooth="yes"/>
      <point x="256.099" y="607"/>
      <point x="248.982" y="606.028"/>
      <point x="242.075" y="603.978" type="curve" smooth="yes"/>
      <point x="237.268" y="603.749"/>
      <point x="231.634" y="601.756"/>
      <point x="226" y="598" type="curve" smooth="yes"/>
      <point x="46" y="478" type="line" smooth="yes"/>
      <point x="34" y="470"/>
      <point x="28" y="457"/>
      <point x="28" y="445" type="curve" smooth="yes"/>
      <point x="28" y="429"/>
      <point x="37" y="416"/>
      <point x="53" y="416" type="curve" smooth="yes"/>
      <point x="59" y="416"/>
      <point x="67" y="418"/>
      <point x="75" y="423" type="curve" smooth="yes"/>
      <point x="149.995" y="474.096" type="line"/>
      <point x="105.842" y="377.022"/>
      <point x="76" y="264.681"/>
      <point x="76" y="167" type="curve" smooth="yes"/>
      <point x="76" y="31"/>
      <point x="134" y="-75"/>
      <point x="289" y="-75" type="curve" smooth="yes"/>
      <point x="520.746" y="-75"/>
      <point x="663.168" y="185.599"/>
      <point x="688.074" y="404.863" type="curve"/>
      <point x="720.91" y="420.158"/>
      <point x="756.033" y="443.354"/>
      <point x="793" y="476" type="curve" smooth="yes"/>
      <point x="801" y="483"/>
      <point x="805" y="492"/>
      <point x="805" y="501" type="curve" smooth="yes"/>
      <point x="805" y="517"/>
      <point x="794" y="532"/>
      <point x="779" y="532" type="curve" smooth="yes"/>
      <point x="774" y="532"/>
      <point x="768" y="530"/>
      <point x="762" y="525" type="curve" smooth="yes"/>
      <point x="736.968" y="505.053"/>
      <point x="713.619" y="490.001"/>
    </contour>
  </outline>
</glyph>
<glyph name="V" format="1">
  <advance width="562"/>
  <unicode hex="0056"/>
  <outline>
    <contour>
      <point x="522" y="634" type="curve" smooth="yes"/>
      <point x="550" y="634"/>
      <point x="567" y="615"/>
      <point x="567" y="571" type="curve" smooth="yes"/>
      <point x="567" y="548.471"/>
      <point x="562.483" y="519.438"/>
      <point x="552.066" y="482.748" type="curve"/>
      <point x="503.186" y="499.692"/>
      <point x="479" y="545.301"/>
      <point x="479" y="582" type="curve" smooth="yes"/>
      <point x="479" y="611"/>
      <point x="494" y="634"/>
    </contour>
    <contour>
      <point x="629.268" y="410.102" type="curve"/>
      <point x="675.933" y="420.879"/>
      <point x="728.844" y="446.551"/>
      <point x="788" y="492" type="curve" smooth="yes"/>
      <point x="797" y="500"/>
      <point x="801" y="510"/>
      <point x="801" y="519" type="curve" smooth="yes"/>
      <point x="801" y="534"/>
      <point x="791" y="548"/>
      <point x="775" y="548" type="curve" smooth="yes"/>
      <point x="768" y="548"/>
      <point x="761" y="546"/>
      <point x="753" y="540" type="curve" smooth="yes"/>
      <point x="714.367" y="512.659"/>
      <point x="679.972" y="495.21"/>
      <point x="649.817" y="485.553" type="curve"/>
      <point x="655.355" y="513.145"/>
      <point x="658" y="538.35"/>
      <point x="658" y="561" type="curve" smooth="yes"/>
      <point x="658" y="657"/>
      <point x="612" y="709"/>
      <point x="537" y="709" type="curve" smooth="yes"/>
      <point x="446" y="709"/>
      <point x="404" y="647"/>
      <point x="404" y="579" type="curve" smooth="yes"/>
      <point x="404" y="509.507"/>
      <point x="448.163" y="433.706"/>
      <point x="527.686" y="410.874" type="curve"/>
      <point x="513.997" y="375.388"/>
      <point x="496.313" y="334.94"/>
      <point x="474" y="289" type="curve" smooth="yes"/>
      <point x="423" y="191"/>
      <point x="312" y="40"/>
      <point x="247" y="27" type="curve" smooth="yes"/>
      <point x="244" y="26"/>
      <point x="241" y="26"/>
      <point x="238" y="26" type="curve" smooth="yes"/>
      <point x="212" y="26"/>
      <point x="191" y="60"/>
      <point x="191" y="143" type="curve" smooth="yes"/>
      <point x="191" y="347"/>
      <point x="294" y="531"/>
      <point x="302" y="539" type="curve" smooth="yes"/>
      <point x="303" y="541"/>
      <point x="304" y="543"/>
      <point x="304" y="545" type="curve" smooth="yes"/>
      <point x="304" y="558"/>
      <point x="286" y="579"/>
      <point x="262" y="579" type="curve" smooth="yes"/>
      <point x="251.189" y="579"/>
      <point x="239.007" y="574.891"/>
      <point x="226.691" y="564.204" type="curve" smooth="yes"/>
      <point x="1" y="427" type="line" smooth="yes"/>
      <point x="-11" y="419"/>
      <point x="-17" y="406"/>
      <point x="-17" y="394" type="curve" smooth="yes"/>
      <point x="-17" y="378"/>
      <point x="-7" y="363"/>
      <point x="9" y="363" type="curve" smooth="yes"/>
      <point x="15" y="363"/>
      <point x="22" y="365"/>
      <point x="30" y="370" type="curve" smooth="yes"/>
      <point x="162.772" y="453.49" type="line"/>
      <point x="130.261" y="377.759"/>
      <point x="94" y="265.387"/>
      <point x="94" y="148" type="curve" smooth="yes"/>
      <point x="94" y="20"/>
      <point x="141" y="-51"/>
      <point x="232" y="-51" type="curve" smooth="yes"/>
      <point x="236" y="-51" type="line" smooth="yes"/>
      <point x="358" y="-45"/>
      <point x="481" y="106"/>
      <point x="562" y="258" type="curve" smooth="yes"/>
      <point x="591.564" y="313.156"/>
      <point x="613.728" y="364.028"/>
    </contour>
  </outline>
</glyph>
<glyph name="W" format="1">
  <advance width="982"/>
  <unicode hex="0057"/>
  <outline>
    <contour>
      <point x="657" y="708" type="move" name="top"/>
    </contour>
    <contour>
      <point x="129.189" y="428.087" type="line"/>
      <point x="101" y="354.26"/>
      <point x="74" y="255.453"/>
      <point x="74" y="152" type="curve" smooth="yes"/>
      <point x="74" y="20"/>
      <point x="120" y="-58"/>
      <point x="217" y="-58" type="curve" smooth="yes"/>
      <point x="221" y="-58" type="line" smooth="yes"/>
      <point x="317.082" y="-54.9254"/>
      <point x="410.21" y="43.2737"/>
      <point x="481.764" y="169.837" type="curve"/>
      <point x="487.178" y="59.5683"/>
      <point x="521.991" y="-58"/>
      <point x="606" y="-58" type="curve" smooth="yes"/>
      <point x="734" y="-58"/>
      <point x="842" y="103"/>
      <point x="926" y="254" type="curve" smooth="yes"/>
      <point x="957.124" y="311.802"/>
      <point x="980.143" y="365.254"/>
      <point x="996.11" y="413.83" type="curve"/>
      <point x="1044.45" y="422.01"/>
      <point x="1099.56" y="443.801"/>
      <point x="1161" y="484" type="curve" smooth="yes"/>
      <point x="1174" y="493"/>
      <point x="1179" y="506"/>
      <point x="1179" y="518" type="curve" smooth="yes"/>
      <point x="1179" y="537"/>
      <point x="1165" y="554"/>
      <point x="1144" y="554" type="curve" smooth="yes"/>
      <point x="1135" y="554"/>
      <point x="1125" y="551"/>
      <point x="1114" y="543" type="curve" smooth="yes"/>
      <point x="1076.95" y="517.74"/>
      <point x="1044.63" y="501.302"/>
      <point x="1016.68" y="491.742" type="curve"/>
      <point x="1022.34" y="520.954"/>
      <point x="1025" y="547.762"/>
      <point x="1025" y="572" type="curve" smooth="yes"/>
      <point x="1025" y="668"/>
      <point x="948" y="678"/>
      <point x="916" y="722" type="curve"/>
      <point x="813" y="722"/>
      <point x="765" y="656"/>
      <point x="765" y="585" type="curve" smooth="yes"/>
      <point x="765" y="516.117"/>
      <point x="809.382" y="442.527"/>
      <point x="892.081" y="418.271" type="curve"/>
      <point x="878.334" y="382.293"/>
      <point x="860.844" y="341.918"/>
      <point x="839" y="297" type="curve" smooth="yes"/>
      <point x="789" y="202"/>
      <point x="690" y="49"/>
      <point x="619" y="38" type="curve" smooth="yes"/>
      <point x="615" y="38" type="line" smooth="yes"/>
      <point x="581" y="38"/>
      <point x="576" y="103"/>
      <point x="576" y="149" type="curve" smooth="yes"/>
      <point x="576" y="171"/>
      <point x="577" y="189"/>
      <point x="577" y="192" type="curve" smooth="yes"/>
      <point x="577" y="215"/>
      <point x="577" y="212"/>
      <point x="578" y="236" type="curve" smooth="yes"/>
      <point x="594" y="380"/>
      <point x="614" y="380"/>
      <point x="631" y="435" type="curve" smooth="yes"/>
      <point x="634" y="446"/>
      <point x="635" y="455"/>
      <point x="635" y="464" type="curve" smooth="yes"/>
      <point x="635" y="497"/>
      <point x="616" y="515"/>
      <point x="597" y="515" type="curve" smooth="yes"/>
      <point x="591" y="515" type="line" smooth="yes"/>
      <point x="575" y="515"/>
      <point x="559" y="511"/>
      <point x="549" y="497" type="curve" smooth="yes"/>
      <point x="532.115" y="472.516"/>
      <point x="517.368" y="435.738"/>
      <point x="505.963" y="393.057" type="curve"/>
      <point x="489.588" y="353.633"/>
      <point x="484.186" y="348.371"/>
      <point x="464" y="308" type="curve" smooth="yes"/>
      <point x="382" y="127"/>
      <point x="285" y="44"/>
      <point x="231" y="38" type="curve" smooth="yes"/>
      <point x="227" y="38" type="line" smooth="yes"/>
      <point x="203" y="38"/>
      <point x="183" y="64"/>
      <point x="183" y="145" type="curve" smooth="yes"/>
      <point x="183" y="344"/>
      <point x="286" y="523"/>
      <point x="295" y="532" type="curve" smooth="yes"/>
      <point x="298" y="536"/>
      <point x="299" y="540"/>
      <point x="299" y="545" type="curve" smooth="yes"/>
      <point x="299" y="565"/>
      <point x="278" y="590"/>
      <point x="249" y="590" type="curve" smooth="yes"/>
      <point x="235.534" y="590"/>
      <point x="221.063" y="584.977"/>
      <point x="206.3" y="571.37" type="curve"/>
      <point x="-18" y="436" type="line" smooth="yes"/>
      <point x="-34" y="427"/>
      <point x="-41" y="410"/>
      <point x="-41" y="394" type="curve" smooth="yes"/>
      <point x="-41" y="372"/>
      <point x="-28" y="352"/>
      <point x="-6" y="352" type="curve" smooth="yes"/>
      <point x="2" y="352"/>
      <point x="11" y="355"/>
      <point x="21" y="361" type="curve" smooth="yes"/>
    </contour>
    <contour>
      <point x="916.29" y="489.565" type="curve"/>
      <point x="879.031" y="506.44"/>
      <point x="863" y="545.437"/>
      <point x="863" y="581" type="curve" smooth="yes"/>
      <point x="863" y="618"/>
      <point x="880" y="650"/>
      <point x="909" y="650" type="curve" smooth="yes"/>
      <point x="924" y="650"/>
      <point x="935" y="633"/>
      <point x="935" y="596" type="curve" smooth="yes"/>
      <point x="935" y="570.175"/>
      <point x="929.488" y="534.869"/>
    </contour>
  </outline>
</glyph>
<glyph name="a" format="1">
  <advance width="360"/>
  <unicode hex="0061"/>
  <outline>
    <contour>
      <point x="257" y="343" type="move" name="top"/>
    </contour>
    <contour>
      <point x="301" y="1" type="move" name="ogonek"/>
    </contour>
    <contour>
      <point x="149" y="79" type="curve" smooth="yes"/>
      <point x="121" y="79"/>
      <point x="109" y="98"/>
      <point x="109" y="125" type="curve" smooth="yes"/>
      <point x="109" y="182"/>
      <point x="165" y="272"/>
      <point x="249" y="276" type="curve"/>
      <point x="226" y="168" type="line" smooth="yes"/>
      <point x="212" y="101"/>
      <point x="177" y="79"/>
    </contour>
    <contour>
      <point x="23" y="114" type="curve" smooth="yes"/>
      <point x="23" y="47"/>
      <point x="60" y="-5"/>
      <point x="129" y="-5" type="curve" smooth="yes"/>
      <point x="165" y="-5"/>
      <point x="196" y="15"/>
      <point x="217" y="44" type="curve" smooth="yes"/>
      <point x="230" y="62" type="line"/>
      <point x="233" y="30"/>
      <point x="260" y="1"/>
      <point x="301" y="1" type="curve" smooth="yes"/>
      <point x="360" y="1"/>
      <point x="415" y="54"/>
      <point x="441" y="88" type="curve" smooth="yes"/>
      <point x="443" y="93"/>
      <point x="443" y="99"/>
      <point x="444" y="102" type="curve" smooth="yes"/>
      <point x="444" y="127"/>
      <point x="434" y="158"/>
      <point x="414" y="158" type="curve" smooth="yes"/>
      <point x="407" y="158"/>
      <point x="401" y="153"/>
      <point x="395" y="147" type="curve" smooth="yes"/>
      <point x="367" y="109"/>
      <point x="331" y="84"/>
      <point x="311" y="84" type="curve" smooth="yes"/>
      <point x="302" y="84"/>
      <point x="296" y="89"/>
      <point x="296" y="102" type="curve" smooth="yes"/>
      <point x="296" y="105"/>
      <point x="296" y="108"/>
      <point x="297" y="111" type="curve" smooth="yes"/>
      <point x="325" y="272" type="line" smooth="yes"/>
      <point x="326" y="275"/>
      <point x="326" y="279"/>
      <point x="326" y="282" type="curve" smooth="yes"/>
      <point x="326" y="301"/>
      <point x="314" y="310"/>
      <point x="297" y="310" type="curve" smooth="yes"/>
      <point x="291" y="310" type="line" smooth="yes"/>
      <point x="264" y="307" type="line" smooth="yes"/>
      <point x="264" y="310"/>
      <point x="265" y="312"/>
      <point x="265" y="315" type="curve" smooth="yes"/>
      <point x="265" y="326"/>
      <point x="259" y="337"/>
      <point x="224" y="337" type="curve" smooth="yes"/>
      <point x="140" y="337"/>
      <point x="23" y="250"/>
    </contour>
  </outline>
</glyph>
<glyph name="c" format="1">
  <advance width="270"/>
  <unicode hex="0063"/>
  <outline>
    <contour>
      <point x="227" y="343" type="move" name="top"/>
    </contour>
    <contour>
      <point x="130" y="0" type="move" name="bot"/>
    </contour>
    <contour>
      <point x="196" y="196" type="curve" smooth="yes"/>
      <point x="196" y="178"/>
      <point x="211" y="161"/>
      <point x="224" y="161" type="curve" smooth="yes"/>
      <point x="259" y="161"/>
      <point x="290" y="198"/>
      <point x="290" y="248" type="curve" smooth="yes"/>
      <point x="290" y="288"/>
      <point x="254" y="330"/>
      <point x="190" y="330" type="curve" smooth="yes"/>
      <point x="80" y="330"/>
      <point x="19" y="223"/>
      <point x="19" y="138" type="curve" smooth="yes"/>
      <point x="19" y="131"/>
      <point x="19" y="125"/>
      <point x="20" y="118" type="curve" smooth="yes"/>
      <point x="29" y="14"/>
      <point x="104" y="-6"/>
      <point x="156" y="-6" type="curve" smooth="yes"/>
      <point x="251" y="-6"/>
      <point x="316" y="59"/>
      <point x="351" y="105" type="curve" smooth="yes"/>
      <point x="354" y="110"/>
      <point x="356" y="115"/>
      <point x="356" y="121" type="curve" smooth="yes"/>
      <point x="356" y="137"/>
      <point x="345" y="152"/>
      <point x="332" y="152" type="curve" smooth="yes"/>
      <point x="328" y="152"/>
      <point x="323" y="150"/>
      <point x="319" y="146" type="curve" smooth="yes"/>
      <point x="278" y="112"/>
      <point x="239" y="60"/>
      <point x="173" y="60" type="curve" smooth="yes"/>
      <point x="134" y="60"/>
      <point x="104" y="86"/>
      <point x="104" y="131" type="curve" smooth="yes"/>
      <point x="104" y="222"/>
      <point x="147" y="255"/>
      <point x="186" y="255" type="curve" smooth="yes"/>
      <point x="200" y="255"/>
      <point x="209" y="249"/>
      <point x="209" y="238" type="curve" smooth="yes"/>
      <point x="209" y="222"/>
      <point x="196" y="210"/>
    </contour>
  </outline>
</glyph>
<glyph name="f" format="1">
  <advance width="260"/>
  <unicode hex="0066"/>
  <outline>
    <contour>
      <point x="289" y="620" type="move" name="top"/>
    </contour>
    <contour>
      <point x="135" y="241" type="curve"/>
      <point x="139" y="243"/>
      <point x="181" y="525"/>
      <point x="253" y="525" type="curve" smooth="yes"/>
      <point x="261" y="525"/>
      <point x="263" y="513"/>
      <point x="263" y="494" type="curve" smooth="yes"/>
      <point x="263" y="403"/>
      <point x="145" y="253"/>
    </contour>
    <contour>
      <point x="112" y="-185" type="curve" smooth="yes"/>
      <point x="102" y="-185"/>
      <point x="100" y="-126"/>
      <point x="100" y="-79" type="curve" smooth="yes"/>
      <point x="100" y="-21"/>
      <point x="110" y="102"/>
      <point x="110" y="167" type="curve" smooth="yes"/>
      <point x="110" y="175" type="line"/>
      <point x="139" y="125"/>
      <point x="156" y="-3"/>
      <point x="156" y="-91" type="curve" smooth="yes"/>
      <point x="156" y="-97"/>
      <point x="157" y="-106"/>
      <point x="157" y="-117" type="curve" smooth="yes"/>
      <point x="157" y="-144"/>
      <point x="152" y="-185"/>
    </contour>
    <contour>
      <point x="99" y="-261" type="curve" smooth="yes"/>
      <point x="190" y="-228"/>
      <point x="230" y="-130"/>
      <point x="230" y="-64" type="curve" smooth="yes"/>
      <point x="230" y="-4"/>
      <point x="215" y="88"/>
      <point x="202" y="134" type="curve"/>
      <point x="266" y="150"/>
      <point x="352" y="141"/>
      <point x="352" y="211" type="curve" smooth="yes"/>
      <point x="352" y="227.37"/>
      <point x="344.582" y="243.741"/>
      <point x="335.996" y="244.931" type="curve"/>
      <point x="337.197" y="245.027"/>
      <point x="339.385" y="245.731"/>
      <point x="342" y="249" type="curve"/>
      <point x="280" y="221"/>
      <point x="259" y="208"/>
      <point x="198" y="208" type="curve" smooth="yes"/>
      <point x="187" y="208"/>
      <point x="184" y="205"/>
      <point x="177" y="204" type="curve"/>
      <point x="212" y="252"/>
      <point x="336" y="401"/>
      <point x="336" y="541" type="curve" smooth="yes"/>
      <point x="336" y="590"/>
      <point x="310" y="620"/>
      <point x="264" y="620" type="curve" smooth="yes"/>
      <point x="68" y="620"/>
      <point x="12" y="102"/>
      <point x="12" y="-90" type="curve" smooth="yes"/>
      <point x="12" y="-165"/>
      <point x="18" y="-265"/>
      <point x="78" y="-265" type="curve" smooth="yes"/>
      <point x="84" y="-265"/>
      <point x="91" y="-263"/>
    </contour>
  </outline>
</glyph>
<glyph name="g" format="1">
  <advance width="345"/>
  <unicode hex="0067"/>
  <outline>
    <contour>
      <point x="257" y="343" type="move" name="top"/>
    </contour>
    <contour>
      <point x="80" y="-255" type="curve" smooth="yes"/>
      <point x="65" y="-255"/>
      <point x="61" y="-247"/>
      <point x="61" y="-237" type="curve" smooth="yes"/>
      <point x="61" y="-183"/>
      <point x="111" y="-150"/>
      <point x="204" y="-79" type="curve"/>
      <point x="197" y="-123"/>
      <point x="148" y="-255"/>
    </contour>
    <contour>
      <point x="150" y="72" type="curve" smooth="yes"/>
      <point x="126" y="72"/>
      <point x="121" y="91"/>
      <point x="121" y="112" type="curve" smooth="yes"/>
      <point x="121" y="160"/>
      <point x="183" y="247"/>
      <point x="260" y="253" type="curve"/>
      <point x="237" y="164" type="line" smooth="yes"/>
      <point x="228" y="133"/>
      <point x="209" y="72"/>
    </contour>
    <contour>
      <point x="25" y="97" type="curve" smooth="yes"/>
      <point x="25" y="40"/>
      <point x="61" y="-5"/>
      <point x="129" y="-5" type="curve" smooth="yes"/>
      <point x="168" y="-5"/>
      <point x="201" y="13"/>
      <point x="219" y="35" type="curve"/>
      <point x="212" y="-5" type="line"/>
      <point x="97" y="-73"/>
      <point x="-19" y="-158"/>
      <point x="-19" y="-248" type="curve" smooth="yes"/>
      <point x="-19" y="-300"/>
      <point x="14" y="-328"/>
      <point x="66" y="-328" type="curve" smooth="yes"/>
      <point x="194" y="-328"/>
      <point x="244" y="-188"/>
      <point x="278" y="-41" type="curve"/>
      <point x="347" y="4"/>
      <point x="396" y="20"/>
      <point x="445" y="47" type="curve" smooth="yes"/>
      <point x="463" y="56"/>
      <point x="470" y="68"/>
      <point x="470" y="79" type="curve" smooth="yes"/>
      <point x="470" y="97"/>
      <point x="451" y="114"/>
      <point x="431" y="114" type="curve" smooth="yes"/>
      <point x="428" y="114"/>
      <point x="424" y="114"/>
      <point x="421" y="113" type="curve" smooth="yes"/>
      <point x="420" y="113" type="line" smooth="yes"/>
      <point x="400" y="113"/>
      <point x="335" y="76"/>
      <point x="292" y="39" type="curve"/>
      <point x="346" y="264" type="line" smooth="yes"/>
      <point x="347" y="267"/>
      <point x="347" y="270"/>
      <point x="347" y="272" type="curve" smooth="yes"/>
      <point x="347" y="292"/>
      <point x="330" y="309"/>
      <point x="304" y="309" type="curve" smooth="yes"/>
      <point x="296" y="309"/>
      <point x="288" y="307"/>
      <point x="279" y="304" type="curve"/>
      <point x="279" y="304"/>
      <point x="277" y="327"/>
      <point x="248" y="328" type="curve" smooth="yes"/>
      <point x="243" y="328" type="line" smooth="yes"/>
      <point x="132" y="328"/>
      <point x="25" y="224"/>
    </contour>
  </outline>
</glyph>
<glyph name="k" format="1">
  <advance width="440"/>
  <unicode hex="006B"/>
  <outline>
    <contour>
      <point x="331" y="653" type="move" name="top"/>
    </contour>
    <contour>
      <point x="161" y="318" type="curve"/>
      <point x="171" y="394"/>
      <point x="227" y="564"/>
      <point x="283" y="564" type="curve" smooth="yes"/>
      <point x="292" y="564"/>
      <point x="295" y="561"/>
      <point x="295" y="550" type="curve" smooth="yes"/>
      <point x="295" y="465"/>
      <point x="240" y="426"/>
    </contour>
    <contour>
      <point x="249" y="79" type="curve" smooth="yes"/>
      <point x="249" y="15"/>
      <point x="309" y="-9"/>
      <point x="340" y="-9" type="curve" smooth="yes"/>
      <point x="412" y="-9"/>
      <point x="489" y="63"/>
      <point x="503" y="88" type="curve" smooth="yes"/>
      <point x="507" y="93"/>
      <point x="508" y="99"/>
      <point x="508" y="105" type="curve" smooth="yes"/>
      <point x="508" y="125"/>
      <point x="491" y="147"/>
      <point x="475" y="147" type="curve" smooth="yes"/>
      <point x="468" y="147"/>
      <point x="460" y="143"/>
      <point x="455" y="132" type="curve" smooth="yes"/>
      <point x="402" y="59"/>
      <point x="371" y="69"/>
      <point x="370" y="61" type="curve"/>
      <point x="359" y="59"/>
      <point x="350" y="58"/>
      <point x="343" y="58" type="curve" smooth="yes"/>
      <point x="328" y="58"/>
      <point x="321" y="63"/>
      <point x="321" y="73" type="curve" smooth="yes"/>
      <point x="321" y="75"/>
      <point x="321" y="78"/>
      <point x="322" y="81" type="curve" smooth="yes"/>
      <point x="336" y="152"/>
      <point x="456" y="155"/>
      <point x="456" y="257" type="curve" smooth="yes"/>
      <point x="456" y="293"/>
      <point x="433" y="318"/>
      <point x="392" y="318" type="curve" smooth="yes"/>
      <point x="289" y="318"/>
      <point x="185" y="200"/>
      <point x="125" y="79" type="curve"/>
      <point x="125" y="86"/>
      <point x="138" y="188"/>
      <point x="143" y="206" type="curve"/>
      <point x="158" y="224"/>
      <point x="387" y="459"/>
      <point x="387" y="586" type="curve" smooth="yes"/>
      <point x="387" y="633"/>
      <point x="362" y="663"/>
      <point x="310" y="663" type="curve" smooth="yes"/>
      <point x="87" y="663"/>
      <point x="42" y="228"/>
      <point x="42" y="94" type="curve" smooth="yes"/>
      <point x="42" y="78"/>
      <point x="43" y="66"/>
      <point x="44" y="60" type="curve" smooth="yes"/>
      <point x="44" y="60"/>
      <point x="50" y="-5"/>
      <point x="87" y="-5" type="curve" smooth="yes"/>
      <point x="196" y="-5"/>
      <point x="243" y="210"/>
      <point x="352" y="210" type="curve" smooth="yes"/>
      <point x="358" y="210"/>
      <point x="353" y="207"/>
      <point x="353" y="206" type="curve" smooth="yes"/>
      <point x="346" y="174"/>
      <point x="249" y="152"/>
    </contour>
  </outline>
</glyph>
<glyph name="l" format="1">
  <advance width="247"/>
  <unicode hex="006C"/>
  <outline>
    <contour>
      <point x="149" y="404" type="move" name="mid"/>
    </contour>
    <contour>
      <point x="436" y="406" type="move" name="caron.alt"/>
    </contour>
    <contour>
      <point x="349" y="623" type="move" name="top"/>
    </contour>
    <contour>
      <point x="303" y="539" type="curve" smooth="yes"/>
      <point x="302" y="486"/>
      <point x="228" y="341"/>
      <point x="160" y="260" type="curve"/>
      <point x="177" y="369"/>
      <point x="233" y="558"/>
      <point x="290" y="558" type="curve" smooth="yes"/>
      <point x="299" y="558"/>
      <point x="303" y="551"/>
    </contour>
    <contour>
      <point x="174" y="-5" type="curve" smooth="yes"/>
      <point x="232" y="-5"/>
      <point x="282" y="18"/>
      <point x="338" y="82" type="curve" smooth="yes"/>
      <point x="348" y="92"/>
      <point x="352" y="103"/>
      <point x="352" y="112" type="curve" smooth="yes"/>
      <point x="352" y="132"/>
      <point x="333" y="148"/>
      <point x="315" y="148" type="curve" smooth="yes"/>
      <point x="307" y="148"/>
      <point x="300" y="145"/>
      <point x="294" y="138" type="curve" smooth="yes"/>
      <point x="260" y="99"/>
      <point x="225" y="72"/>
      <point x="189" y="72" type="curve" smooth="yes"/>
      <point x="155" y="72"/>
      <point x="147" y="115"/>
      <point x="147" y="148" type="curve" smooth="yes"/>
      <point x="147" y="157"/>
      <point x="148" y="166"/>
      <point x="149" y="172" type="curve"/>
      <point x="269" y="268"/>
      <point x="391" y="471"/>
      <point x="391" y="580" type="curve" smooth="yes"/>
      <point x="391" y="626"/>
      <point x="371" y="655"/>
      <point x="320" y="655" type="curve" smooth="yes"/>
      <point x="166" y="655"/>
      <point x="75" y="355"/>
      <point x="57" y="181" type="curve" smooth="yes"/>
      <point x="56" y="172"/>
      <point x="56" y="163"/>
      <point x="56" y="155" type="curve" smooth="yes"/>
      <point x="56" y="61"/>
      <point x="101" y="-5"/>
    </contour>
  </outline>
</glyph>
<glyph name="p" format="1">
  <advance width="365"/>
  <unicode hex="0070"/>
  <outline>
    <contour>
      <point x="287" y="343" type="move" name="top"/>
    </contour>
    <contour>
      <point x="167" y="68" type="curve" smooth="yes"/>
      <point x="153" y="68"/>
      <point x="140" y="76"/>
      <point x="129" y="84" type="curve"/>
      <point x="150" y="145"/>
      <point x="167" y="254"/>
      <point x="238" y="254" type="curve" smooth="yes"/>
      <point x="250.697" y="254"/>
      <point x="261.201" y="245.226"/>
      <point x="267.522" y="232.32" type="curve"/>
      <point x="238.568" y="212.665"/>
      <point x="230.891" y="206.511"/>
      <point x="227" y="189" type="curve" smooth="yes"/>
      <point x="226" y="184"/>
      <point x="226" y="180"/>
      <point x="226" y="176" type="curve" smooth="yes"/>
      <point x="226" y="156.457"/>
      <point x="236.443" y="142.882"/>
      <point x="253.685" y="135.274" type="curve"/>
      <point x="233.225" y="98.1396"/>
      <point x="200.113" y="68"/>
    </contour>
    <contour>
      <point x="355.611" y="205.685" type="curve"/>
      <point x="356.529" y="214.178"/>
      <point x="357" y="222.637"/>
      <point x="357" y="231" type="curve" smooth="yes"/>
      <point x="357" y="288"/>
      <point x="328" y="331"/>
      <point x="272" y="331" type="curve" smooth="yes"/>
      <point x="118" y="331"/>
      <point x="85" y="205"/>
      <point x="44" y="88" type="curve" smooth="yes"/>
      <point x="33" y="60"/>
      <point x="-27" y="-207"/>
      <point x="-27" y="-239" type="curve" smooth="yes"/>
      <point x="-27" y="-249"/>
      <point x="-25" y="-251"/>
      <point x="-21" y="-251" type="curve" smooth="yes"/>
      <point x="-18" y="-251"/>
      <point x="-15" y="-250"/>
      <point x="-10" y="-250" type="curve" smooth="yes"/>
      <point x="13" y="-250"/>
      <point x="45" y="-226"/>
      <point x="53" y="-208" type="curve"/>
      <point x="54" y="-208" type="line" smooth="yes"/>
      <point x="72" y="-208"/>
      <point x="110" y="-5"/>
      <point x="115" y="14" type="curve"/>
      <point x="133" y="-1"/>
      <point x="143" y="-8"/>
      <point x="165" y="-8" type="curve" smooth="yes"/>
      <point x="243.169" y="-8"/>
      <point x="307.965" y="57.8295"/>
      <point x="338.368" y="136.009" type="curve"/>
      <point x="404.76" y="159.002"/>
      <point x="490.936" y="224.029"/>
      <point x="523" y="262" type="curve"/>
      <point x="532" y="266"/>
      <point x="535" y="274"/>
      <point x="536" y="281" type="curve" smooth="yes"/>
      <point x="536" y="298"/>
      <point x="526" y="314"/>
      <point x="511" y="317" type="curve" smooth="yes"/>
      <point x="508" y="318"/>
      <point x="509" y="321"/>
      <point x="506" y="320" type="curve" smooth="yes"/>
      <point x="475.635" y="289.635"/>
      <point x="406.984" y="220.187"/>
    </contour>
  </outline>
</glyph>
<glyph name="currency" format="1">
  <advance width="503"/>
  <unicode hex="00A4"/>
  <outline>
    <contour>
      <point x="238" y="234" type="curve" smooth="yes"/>
      <point x="191" y="234"/>
      <point x="167" y="264"/>
      <point x="167" y="308" type="curve" smooth="yes"/>
      <point x="167" y="390"/>
      <point x="200" y="448"/>
      <point x="279" y="448" type="curve" smooth="yes"/>
      <point x="318" y="448"/>
      <point x="338" y="419"/>
      <point x="341" y="385" type="curve" smooth="yes"/>
      <point x="341" y="310"/>
      <point x="309" y="234"/>
    </contour>
    <contour>
      <point x="227" y="154" type="curve" smooth="yes"/>
      <point x="261" y="154"/>
      <point x="285" y="163"/>
      <point x="306" y="172" type="curve"/>
      <point x="323" y="153"/>
      <point x="352" y="119"/>
      <point x="382" y="119" type="curve" smooth="yes"/>
      <point x="401" y="119"/>
      <point x="422" y="142"/>
      <point x="422" y="160" type="curve" smooth="yes"/>
      <point x="423" y="172"/>
      <point x="414" y="183"/>
      <point x="400" y="196" type="curve" smooth="yes"/>
      <point x="370" y="221" type="line"/>
      <point x="400" y="257"/>
      <point x="428" y="306"/>
      <point x="428" y="382" type="curve" smooth="yes"/>
      <point x="428" y="403"/>
      <point x="423" y="422"/>
      <point x="417" y="440" type="curve"/>
      <point x="452" y="466" type="line" smooth="yes"/>
      <point x="465" y="474"/>
      <point x="482" y="484"/>
      <point x="482" y="504" type="curve" smooth="yes"/>
      <point x="482" y="522"/>
      <point x="466" y="543"/>
      <point x="446" y="543" type="curve" smooth="yes"/>
      <point x="417" y="543"/>
      <point x="389" y="515"/>
      <point x="370" y="501" type="curve"/>
      <point x="348" y="515"/>
      <point x="321" y="525"/>
      <point x="282" y="525" type="curve" smooth="yes"/>
      <point x="242" y="525"/>
      <point x="210" y="517"/>
      <point x="187" y="504" type="curve"/>
      <point x="149" y="538" type="line" smooth="yes"/>
      <point x="137" y="547"/>
      <point x="125" y="554"/>
      <point x="115" y="554" type="curve" smooth="yes"/>
      <point x="94" y="554"/>
      <point x="73" y="534"/>
      <point x="73" y="513" type="curve" smooth="yes"/>
      <point x="73" y="497"/>
      <point x="86" y="486"/>
      <point x="96" y="477" type="curve" smooth="yes"/>
      <point x="125" y="452" type="line"/>
      <point x="99" y="419"/>
      <point x="78" y="379"/>
      <point x="78" y="317" type="curve" smooth="yes"/>
      <point x="78" y="288"/>
      <point x="82" y="266"/>
      <point x="93" y="241" type="curve"/>
      <point x="44" y="208" type="line" smooth="yes"/>
      <point x="31" y="200"/>
      <point x="16" y="189"/>
      <point x="16" y="168" type="curve" smooth="yes"/>
      <point x="16" y="149"/>
      <point x="30" y="130"/>
      <point x="50" y="130" type="curve" smooth="yes"/>
      <point x="53" y="130"/>
      <point x="58" y="131"/>
      <point x="63" y="132" type="curve" smooth="yes"/>
      <point x="91" y="143"/>
      <point x="116" y="163"/>
      <point x="139" y="181" type="curve"/>
      <point x="160" y="167"/>
      <point x="187" y="154"/>
    </contour>
  </outline>
</glyph>
<glyph name="brokenbar" format="1">
  <advance width="350"/>
  <unicode hex="00A6"/>
  <outline>
    <contour>
      <point x="164" y="424" type="line" smooth="yes"/>
      <point x="162" y="418"/>
      <point x="162" y="412"/>
      <point x="162" y="407" type="curve" smooth="yes"/>
      <point x="162" y="381"/>
      <point x="181" y="367"/>
      <point x="202" y="367" type="curve" smooth="yes"/>
      <point x="221" y="367"/>
      <point x="241" y="379"/>
      <point x="248" y="405" type="curve" smooth="yes"/>
      <point x="313" y="643" type="line" smooth="yes"/>
      <point x="314" y="647"/>
      <point x="315" y="651"/>
      <point x="315" y="655" type="curve" smooth="yes"/>
      <point x="315" y="680"/>
      <point x="294" y="698"/>
      <point x="272" y="698" type="curve" smooth="yes"/>
      <point x="255" y="698"/>
      <point x="238" y="687"/>
      <point x="231" y="661" type="curve" smooth="yes"/>
    </contour>
    <contour>
      <point x="61" y="-3" type="line" smooth="yes"/>
      <point x="60" y="-8"/>
      <point x="59" y="-13"/>
      <point x="59" y="-18" type="curve" smooth="yes"/>
      <point x="59" y="-44"/>
      <point x="80" y="-60"/>
      <point x="101" y="-60" type="curve" smooth="yes"/>
      <point x="120" y="-60"/>
      <point x="139" y="-48"/>
      <point x="145" y="-22" type="curve" smooth="yes"/>
      <point x="204" y="223" type="line" smooth="yes"/>
      <point x="206" y="230"/>
      <point x="206" y="235"/>
      <point x="206" y="241" type="curve" smooth="yes"/>
      <point x="206" y="269"/>
      <point x="188" y="284"/>
      <point x="169" y="284" type="curve" smooth="yes"/>
      <point x="150" y="284"/>
      <point x="130" y="270"/>
      <point x="122" y="238" type="curve" smooth="yes"/>
    </contour>
  </outline>
</glyph>
<glyph name="macron" format="1">
  <advance width="205"/>
  <unicode hex="00AF"/>
  <outline>
    <contour>
      <point x="96" y="343" type="move" name="_top"/>
    </contour>
    <contour>
      <point x="88" y="478" type="move" name="_mid"/>
    </contour>
    <contour>
      <point x="214" y="435" type="curve" smooth="yes"/>
      <point x="247" y="435"/>
      <point x="258" y="437"/>
      <point x="258" y="464" type="curve" smooth="yes"/>
      <point x="258" y="484"/>
      <point x="242" y="492"/>
      <point x="228" y="498" type="curve" smooth="yes"/>
      <point x="197" y="510"/>
      <point x="135" y="517"/>
      <point x="75" y="517" type="curve" smooth="yes"/>
      <point x="46" y="517"/>
      <point x="17" y="516"/>
      <point x="-7" y="512" type="curve" smooth="yes"/>
      <point x="-48" y="506"/>
      <point x="-56" y="482"/>
      <point x="-56" y="464" type="curve" smooth="yes"/>
      <point x="-56" y="458" type="line" smooth="yes"/>
      <point x="-56" y="442"/>
      <point x="-43" y="425"/>
      <point x="-25" y="425" type="curve" smooth="yes"/>
      <point x="-22" y="425"/>
      <point x="-19" y="425"/>
      <point x="-16" y="426" type="curve" smooth="yes"/>
      <point x="22" y="435"/>
      <point x="69" y="437"/>
      <point x="113" y="437" type="curve" smooth="yes"/>
      <point x="151" y="437"/>
      <point x="187" y="435"/>
    </contour>
  </outline>
</glyph>
<glyph name="onehalf" format="1">
  <advance width="1017"/>
  <unicode hex="00BD"/>
  <outline>
    <contour>
      <point x="235" y="217" type="curve" smooth="yes"/>
      <point x="271" y="375"/>
      <point x="316" y="622"/>
      <point x="322" y="653" type="curve" smooth="yes"/>
      <point x="323" y="660"/>
      <point x="324" y="666"/>
      <point x="324" y="672" type="curve" smooth="yes"/>
      <point x="324" y="687"/>
      <point x="320" y="697"/>
      <point x="308" y="697" type="curve" smooth="yes"/>
      <point x="303" y="697" type="line" smooth="yes"/>
      <point x="268" y="690"/>
      <point x="157" y="670"/>
      <point x="129" y="662" type="curve" smooth="yes"/>
      <point x="118" y="658"/>
      <point x="113" y="639"/>
      <point x="113" y="620" type="curve" smooth="yes"/>
      <point x="113" y="598"/>
      <point x="119" y="577"/>
      <point x="131" y="577" type="curve" smooth="yes"/>
      <point x="145" y="577"/>
      <point x="201" y="596"/>
      <point x="218" y="602" type="curve"/>
      <point x="198" y="517"/>
      <point x="169" y="386"/>
      <point x="137" y="228" type="curve" smooth="yes"/>
      <point x="137" y="226"/>
      <point x="136" y="224"/>
      <point x="136" y="222" type="curve" smooth="yes"/>
      <point x="136" y="200"/>
      <point x="159" y="190"/>
      <point x="183" y="190" type="curve" smooth="yes"/>
      <point x="207" y="190"/>
      <point x="232" y="200"/>
    </contour>
    <contour>
      <point x="406" y="-29" type="curve" smooth="yes"/>
      <point x="660" y="575" type="line" smooth="yes"/>
      <point x="662" y="580"/>
      <point x="664" y="586"/>
      <point x="664" y="591" type="curve" smooth="yes"/>
      <point x="664" y="613"/>
      <point x="644" y="631"/>
      <point x="623" y="631" type="curve" smooth="yes"/>
      <point x="609" y="631"/>
      <point x="594" y="622"/>
      <point x="585" y="601" type="curve" smooth="yes"/>
      <point x="331" y="15" type="line" smooth="yes"/>
      <point x="328" y="9"/>
      <point x="327" y="3"/>
      <point x="327" y="-3" type="curve" smooth="yes"/>
      <point x="327" y="-29"/>
      <point x="353" y="-49"/>
      <point x="376" y="-49" type="curve" smooth="yes"/>
      <point x="388" y="-49"/>
      <point x="400" y="-43"/>
    </contour>
    <contour>
      <point x="737" y="78" type="curve" smooth="yes"/>
      <point x="723" y="78"/>
      <point x="711" y="85"/>
      <point x="711" y="96" type="curve" smooth="yes"/>
      <point x="711" y="105"/>
      <point x="717" y="110"/>
      <point x="730" y="110" type="curve" smooth="yes"/>
      <point x="739" y="110" type="line" smooth="yes"/>
      <point x="755" y="110"/>
      <point x="780" y="109"/>
      <point x="791" y="102" type="curve"/>
      <point x="769" y="85"/>
      <point x="747" y="78"/>
    </contour>
    <contour>
      <point x="747" y="355" type="curve" smooth="yes"/>
      <point x="747" y="395"/>
      <point x="794" y="425"/>
      <point x="828" y="425" type="curve" smooth="yes"/>
      <point x="879" y="425"/>
      <point x="905" y="382"/>
      <point x="905" y="302" type="curve" smooth="yes"/>
      <point x="905" y="294"/>
      <point x="905" y="285"/>
      <point x="904" y="276" type="curve" smooth="yes"/>
      <point x="896" y="250"/>
      <point x="890" y="196"/>
      <point x="841" y="151" type="curve"/>
      <point x="808" y="174"/>
      <point x="776" y="186"/>
      <point x="731" y="186" type="curve" smooth="yes"/>
      <point x="678" y="186"/>
      <point x="644" y="154"/>
      <point x="644" y="100" type="curve" smooth="yes"/>
      <point x="644" y="41"/>
      <point x="694" y="2"/>
      <point x="751" y="2" type="curve" smooth="yes"/>
      <point x="791" y="2"/>
      <point x="823" y="20"/>
      <point x="849" y="42" type="curve"/>
      <point x="871" y="24"/>
      <point x="902" y="0"/>
      <point x="943" y="0" type="curve" smooth="yes"/>
      <point x="991" y="0"/>
      <point x="1008" y="46"/>
      <point x="1008" y="83" type="curve" smooth="yes"/>
      <point x="1008" y="99"/>
      <point x="1005" y="112"/>
      <point x="988" y="112" type="curve" smooth="yes"/>
      <point x="976" y="112"/>
      <point x="973" y="95"/>
      <point x="957" y="95" type="curve" smooth="yes"/>
      <point x="946" y="95" type="line" smooth="yes"/>
      <point x="931" y="95"/>
      <point x="918" y="96"/>
      <point x="906" y="102" type="curve"/>
      <point x="964" y="165"/>
      <point x="996" y="238"/>
      <point x="1000" y="297" type="curve" smooth="yes"/>
      <point x="1000" y="304" type="line" smooth="yes"/>
      <point x="1000" y="461"/>
      <point x="904" y="501"/>
      <point x="833" y="501" type="curve" smooth="yes"/>
      <point x="727" y="501"/>
      <point x="657" y="445"/>
      <point x="657" y="339" type="curve" smooth="yes"/>
      <point x="657" y="289"/>
      <point x="670" y="259"/>
      <point x="727" y="259" type="curve" smooth="yes"/>
      <point x="750" y="259"/>
      <point x="757" y="268"/>
      <point x="757" y="287" type="curve" smooth="yes"/>
      <point x="757" y="300"/>
      <point x="754" y="319"/>
      <point x="749" y="342" type="curve" smooth="yes"/>
      <point x="748" y="347"/>
      <point x="747" y="351"/>
    </contour>
  </outline>
</glyph>
<glyph name="Thorn" format="1">
  <advance width="384"/>
  <unicode hex="00DE"/>
  <outline>
    <contour>
      <point x="397" y="326" type="curve"/>
      <point x="414" y="383"/>
      <point x="439" y="514"/>
      <point x="458" y="630" type="curve"/>
      <point x="543" y="616"/>
      <point x="587" y="570"/>
      <point x="587" y="495" type="curve" smooth="yes"/>
      <point x="587" y="410"/>
      <point x="515" y="344"/>
    </contour>
    <contour>
      <point x="229" y="360" type="curve" smooth="yes"/>
      <point x="212" y="360"/>
      <point x="212" y="350"/>
      <point x="212" y="328" type="curve" smooth="yes"/>
      <point x="212" y="278"/>
      <point x="249" y="274"/>
      <point x="299" y="248" type="curve"/>
      <point x="274" y="61"/>
      <point x="285" y="-46"/>
      <point x="226" y="-46" type="curve" smooth="yes"/>
      <point x="162" y="-46"/>
      <point x="154" y="103"/>
      <point x="154" y="205" type="curve" smooth="yes"/>
      <point x="154" y="376"/>
      <point x="201" y="600"/>
      <point x="361" y="628" type="curve"/>
      <point x="347" y="546"/>
      <point x="332" y="446"/>
      <point x="311" y="328" type="curve"/>
      <point x="296" y="330"/>
      <point x="258" y="360"/>
    </contour>
    <contour>
      <point x="213" y="-125" type="curve" smooth="yes"/>
      <point x="323" y="-125"/>
      <point x="355" y="-24"/>
      <point x="369" y="97" type="curve" smooth="yes"/>
      <point x="380" y="180"/>
      <point x="380" y="255"/>
      <point x="393" y="258" type="curve" smooth="yes"/>
      <point x="578" y="288"/>
      <point x="691" y="383"/>
      <point x="691" y="504" type="curve" smooth="yes"/>
      <point x="691" y="607"/>
      <point x="609" y="698"/>
      <point x="473" y="720" type="curve"/>
      <point x="482" y="779"/>
      <point x="489" y="824"/>
      <point x="489" y="830" type="curve" smooth="yes"/>
      <point x="490" y="844"/>
      <point x="485" y="849"/>
      <point x="472" y="849" type="curve" smooth="yes"/>
      <point x="424" y="849"/>
      <point x="398" y="793"/>
      <point x="378" y="723" type="curve"/>
      <point x="161" y="708"/>
      <point x="59" y="468"/>
      <point x="59" y="198" type="curve" smooth="yes"/>
      <point x="59" y="23"/>
      <point x="97" y="-125"/>
    </contour>
  </outline>
</glyph>
<glyph name="divide" format="1">
  <advance width="474"/>
  <unicode hex="00F7"/>
  <outline>
    <contour>
      <point x="303" y="315" type="curve" smooth="yes"/>
      <point x="345" y="315"/>
      <point x="368" y="340"/>
      <point x="368" y="381" type="curve" smooth="yes"/>
      <point x="368" y="416"/>
      <point x="346" y="436"/>
      <point x="310" y="436" type="curve" smooth="yes"/>
      <point x="270" y="436"/>
      <point x="246" y="411"/>
      <point x="246" y="370" type="curve" smooth="yes"/>
      <point x="246" y="334"/>
      <point x="267" y="315"/>
    </contour>
    <contour>
      <point x="255" y="7" type="curve" smooth="yes"/>
      <point x="296" y="7"/>
      <point x="320" y="32"/>
      <point x="320" y="72" type="curve" smooth="yes"/>
      <point x="320" y="109"/>
      <point x="298" y="128"/>
      <point x="263" y="128" type="curve" smooth="yes"/>
      <point x="223" y="128"/>
      <point x="198" y="102"/>
      <point x="198" y="62" type="curve" smooth="yes"/>
      <point x="198" y="25"/>
      <point x="218" y="7"/>
    </contour>
    <contour>
      <point x="188" y="181" type="curve" smooth="yes"/>
      <point x="381" y="181" type="line" smooth="yes"/>
      <point x="411" y="181"/>
      <point x="426" y="198"/>
      <point x="426" y="228" type="curve" smooth="yes"/>
      <point x="426" y="249"/>
      <point x="409" y="260"/>
      <point x="386" y="260" type="curve" smooth="yes"/>
      <point x="194" y="260" type="line" smooth="yes"/>
      <point x="165" y="260"/>
      <point x="135" y="245"/>
      <point x="135" y="217" type="curve" smooth="yes"/>
      <point x="135" y="192"/>
      <point x="160" y="181"/>
    </contour>
  </outline>
</glyph>
<glyph name="napostrophe" format="1">
  <advance width="338"/>
  <unicode hex="0149"/>
  <outline>
    <component base="caron.alt"/>
    <component base="n"/>
    <contour>
      <point x="103" y="343" type="move" name="caron.alt"/>
    </contour>
  </outline>
</glyph>
<glyph name="OE" format="1">
  <advance width="1076"/>
  <unicode hex="0152"/>
  <outline>
    <contour>
      <point x="587" y="316" type="curve" smooth="yes"/>
      <point x="587" y="112"/>
      <point x="536" y="-5"/>
      <point x="364" y="-5" type="curve" smooth="yes"/>
      <point x="357" y="-5"/>
      <point x="350" y="-4"/>
      <point x="342" y="-4" type="curve" smooth="yes"/>
      <point x="241" y="2"/>
      <point x="186" y="127"/>
      <point x="186" y="233" type="curve" smooth="yes"/>
      <point x="186" y="345"/>
      <point x="245" y="562"/>
      <point x="436" y="562" type="curve" smooth="yes"/>
      <point x="535" y="562"/>
      <point x="587" y="448"/>
    </contour>
    <contour>
      <point x="77" y="211" type="curve" smooth="yes"/>
      <point x="77" y="82"/>
      <point x="158" y="-103"/>
      <point x="336" y="-103" type="curve" smooth="yes"/>
      <point x="468" y="-103"/>
      <point x="563" y="-35"/>
      <point x="587" y="16" type="curve"/>
      <point x="597" y="-49"/>
      <point x="648" y="-104"/>
      <point x="758" y="-104" type="curve" smooth="yes"/>
      <point x="887" y="-104"/>
      <point x="1105" y="-12"/>
      <point x="1182" y="69" type="curve" smooth="yes"/>
      <point x="1189" y="78"/>
      <point x="1193" y="88"/>
      <point x="1193" y="99" type="curve" smooth="yes"/>
      <point x="1193" y="124"/>
      <point x="1176" y="153"/>
      <point x="1152" y="153" type="curve" smooth="yes"/>
      <point x="1141" y="153"/>
      <point x="1132" y="147"/>
      <point x="1120" y="136" type="curve" smooth="yes"/>
      <point x="1056" y="67"/>
      <point x="875" y="-1"/>
      <point x="760" y="-1" type="curve" smooth="yes"/>
      <point x="658" y="-1"/>
      <point x="656" y="76"/>
      <point x="652" y="98" type="curve"/>
      <point x="678" y="136"/>
      <point x="697" y="229"/>
      <point x="697" y="262" type="curve" smooth="yes"/>
      <point x="697" y="268"/>
      <point x="696" y="272"/>
      <point x="695" y="273" type="curve"/>
      <point x="742" y="270"/>
      <point x="748" y="265"/>
      <point x="813" y="265" type="curve" smooth="yes"/>
      <point x="857" y="265"/>
      <point x="880" y="298"/>
      <point x="880" y="325" type="curve" smooth="yes"/>
      <point x="880" y="344"/>
      <point x="867" y="372"/>
      <point x="833" y="372" type="curve" smooth="yes"/>
      <point x="829" y="372" type="line" smooth="yes"/>
      <point x="697" y="372" type="line"/>
      <point x="693" y="392"/>
      <point x="685" y="430"/>
      <point x="679" y="453" type="curve" smooth="yes"/>
      <point x="678" y="458"/>
      <point x="678" y="462"/>
      <point x="678" y="467" type="curve" smooth="yes"/>
      <point x="678" y="556"/>
      <point x="803" y="637"/>
      <point x="932" y="637" type="curve" smooth="yes"/>
      <point x="978" y="637"/>
      <point x="1017" y="624"/>
      <point x="1047" y="598" type="curve" smooth="yes"/>
      <point x="1048" y="599"/>
      <point x="1048" y="600"/>
      <point x="1048" y="600" type="curve" smooth="yes"/>
      <point x="1049" y="600"/>
      <point x="1027" y="542"/>
      <point x="1023" y="542" type="curve" smooth="yes"/>
      <point x="1023" y="542"/>
      <point x="1022" y="542"/>
      <point x="1022" y="544" type="curve"/>
      <point x="1012" y="526"/>
      <point x="1007" y="512"/>
      <point x="1007" y="502" type="curve" smooth="yes"/>
      <point x="1007" y="489"/>
      <point x="1016" y="483"/>
      <point x="1033" y="483" type="curve" smooth="yes"/>
      <point x="1047" y="483" type="line" smooth="yes"/>
      <point x="1082" y="483"/>
      <point x="1138" y="491"/>
      <point x="1138" y="573" type="curve" smooth="yes"/>
      <point x="1138" y="672"/>
      <point x="1048" y="717"/>
      <point x="943" y="717" type="curve" smooth="yes"/>
      <point x="818" y="717"/>
      <point x="654" y="655"/>
      <point x="616" y="545" type="curve"/>
      <point x="610" y="591"/>
      <point x="549" y="658"/>
      <point x="432" y="658" type="curve" smooth="yes"/>
      <point x="188" y="658"/>
      <point x="77" y="446"/>
    </contour>
  </outline>
</glyph>
<glyph name="caron" format="1">
  <advance width="295"/>
  <unicode hex="02C7"/>
  <outline>
    <contour>
      <point x="129" y="343" type="move" name="_top"/>
    </contour>
    <contour>
      <point x="117" y="558" type="curve" smooth="yes"/>
      <point x="114" y="572"/>
      <point x="102" y="578"/>
      <point x="89" y="578" type="curve" smooth="yes"/>
      <point x="72" y="578"/>
      <point x="53" y="566"/>
      <point x="53" y="548" type="curve" smooth="yes"/>
      <point x="53" y="545"/>
      <point x="53" y="543"/>
      <point x="54" y="540" type="curve" smooth="yes"/>
      <point x="81" y="450" type="line" smooth="yes"/>
      <point x="96" y="399"/>
      <point x="103" y="382"/>
      <point x="142" y="382" type="curve" smooth="yes"/>
      <point x="176" y="382"/>
      <point x="190" y="406"/>
      <point x="205" y="431" type="curve" smooth="yes"/>
      <point x="262" y="532" type="line" smooth="yes"/>
      <point x="265" y="537"/>
      <point x="266" y="542"/>
      <point x="266" y="547" type="curve" smooth="yes"/>
      <point x="266" y="563"/>
      <point x="251" y="574"/>
      <point x="235" y="574" type="curve" smooth="yes"/>
      <point x="224" y="574"/>
      <point x="213" y="569"/>
      <point x="205" y="555" type="curve" smooth="yes"/>
      <point x="202" y="549"/>
      <point x="152" y="467"/>
      <point x="147" y="456" type="curve"/>
      <point x="145" y="468"/>
      <point x="120" y="546"/>
    </contour>
  </outline>
</glyph>
<glyph name="hungarumlaut" format="1">
  <advance width="350"/>
  <unicode hex="02DD"/>
  <outline>
    <contour>
      <point x="151" y="343" type="move" name="_top"/>
    </contour>
    <contour>
      <point x="268" y="364" type="curve" smooth="yes"/>
      <point x="297" y="397"/>
      <point x="414" y="532"/>
      <point x="436" y="555" type="curve" smooth="yes"/>
      <point x="447" y="567"/>
      <point x="451" y="579"/>
      <point x="451" y="591" type="curve" smooth="yes"/>
      <point x="451" y="615"/>
      <point x="433" y="634"/>
      <point x="409" y="634" type="curve" smooth="yes"/>
      <point x="393" y="634"/>
      <point x="373" y="625"/>
      <point x="356" y="601" type="curve" smooth="yes"/>
      <point x="335" y="572"/>
      <point x="238" y="430"/>
      <point x="219" y="402" type="curve" smooth="yes"/>
      <point x="214" y="396"/>
      <point x="212" y="390"/>
      <point x="212" y="384" type="curve" smooth="yes"/>
      <point x="212" y="368"/>
      <point x="229" y="354"/>
      <point x="246" y="354" type="curve" smooth="yes"/>
      <point x="254" y="354"/>
      <point x="262" y="357"/>
    </contour>
    <contour>
      <point x="95" y="380" type="curve" smooth="yes"/>
      <point x="116" y="410"/>
      <point x="192" y="513"/>
      <point x="213" y="540" type="curve" smooth="yes"/>
      <point x="227" y="558"/>
      <point x="232" y="575"/>
      <point x="232" y="588" type="curve" smooth="yes"/>
      <point x="232" y="614"/>
      <point x="211" y="630"/>
      <point x="187" y="630" type="curve" smooth="yes"/>
      <point x="169" y="630"/>
      <point x="149" y="621"/>
      <point x="138" y="600" type="curve" smooth="yes"/>
      <point x="124" y="574"/>
      <point x="58" y="443"/>
      <point x="46" y="418" type="curve" smooth="yes"/>
      <point x="43" y="411"/>
      <point x="41" y="405"/>
      <point x="41" y="399" type="curve" smooth="yes"/>
      <point x="41" y="380"/>
      <point x="57" y="368"/>
      <point x="72" y="368" type="curve" smooth="yes"/>
      <point x="80" y="368"/>
      <point x="89" y="372"/>
    </contour>
  </outline>
</glyph>
<glyph name="mu" format="1">
  <advance width="347"/>
  <unicode hex="03BC"/>
  <outline>
    <contour>
      <point x="119" y="75" type="curve" smooth="yes"/>
      <point x="100" y="75"/>
      <point x="95" y="91"/>
      <point x="95" y="117" type="curve" smooth="yes"/>
      <point x="95" y="125" type="line" smooth="yes"/>
      <point x="101" y="212"/>
      <point x="149" y="296"/>
      <point x="149" y="301" type="curve" smooth="yes"/>
      <point x="149" y="302"/>
      <point x="148" y="301"/>
      <point x="147" y="299" type="curve"/>
      <point x="148" y="317"/>
      <point x="129" y="331"/>
      <point x="106" y="331" type="curve" smooth="yes"/>
      <point x="89" y="331"/>
      <point x="76" y="325"/>
      <point x="66" y="311" type="curve"/>
      <point x="64" y="314"/>
      <point x="40" y="265"/>
      <point x="23" y="194" type="curve" smooth="yes"/>
      <point x="-59" y="-103" type="line" smooth="yes"/>
      <point x="-60" y="-108"/>
      <point x="-61" y="-113"/>
      <point x="-61" y="-118" type="curve" smooth="yes"/>
      <point x="-61" y="-143"/>
      <point x="-45" y="-158"/>
      <point x="-27" y="-158" type="curve" smooth="yes"/>
      <point x="-8" y="-158"/>
      <point x="14" y="-141"/>
      <point x="25" y="-100" type="curve" smooth="yes"/>
      <point x="54" y="5" type="line"/>
      <point x="67" y="0"/>
      <point x="81" y="-4"/>
      <point x="98" y="-4" type="curve" smooth="yes"/>
      <point x="168" y="-4"/>
      <point x="212" y="73"/>
      <point x="216" y="98" type="curve" smooth="yes"/>
      <point x="216" y="98"/>
      <point x="212" y="55"/>
      <point x="211" y="59" type="curve"/>
      <point x="211" y="11"/>
      <point x="229" y="-4"/>
      <point x="269" y="-4" type="curve" smooth="yes"/>
      <point x="323" y="-4"/>
      <point x="421" y="51"/>
      <point x="447" y="101" type="curve"/>
      <point x="445" y="115"/>
      <point x="413" y="139"/>
      <point x="396" y="139" type="curve" smooth="yes"/>
      <point x="389" y="139"/>
      <point x="392" y="136"/>
      <point x="383" y="132" type="curve" smooth="yes"/>
      <point x="375" y="126"/>
      <point x="333" y="82"/>
      <point x="305" y="80" type="curve" smooth="yes"/>
      <point x="301" y="80"/>
      <point x="297" y="81"/>
      <point x="299" y="99" type="curve" smooth="yes"/>
      <point x="309" y="184"/>
      <point x="340" y="267"/>
      <point x="340" y="297" type="curve" smooth="yes"/>
      <point x="340" y="316"/>
      <point x="319" y="332"/>
      <point x="300" y="332" type="curve" smooth="yes"/>
      <point x="270" y="332"/>
      <point x="261" y="328"/>
      <point x="244" y="276" type="curve" smooth="yes"/>
      <point x="221" y="191" type="line" smooth="yes"/>
      <point x="199" y="120"/>
      <point x="151" y="75"/>
    </contour>
  </outline>
</glyph>
<glyph name="quoteright" format="1">
  <advance width="219"/>
  <unicode hex="2019"/>
  <outline>
    <contour>
      <point x="57" y="409" type="curve" smooth="yes"/>
      <point x="57" y="393"/>
      <point x="66" y="383"/>
      <point x="86" y="383" type="curve" smooth="yes"/>
      <point x="102" y="383"/>
      <point x="113" y="393"/>
      <point x="120" y="412" type="curve" smooth="yes"/>
      <point x="140" y="463"/>
      <point x="171" y="554"/>
      <point x="187" y="596" type="curve" smooth="yes"/>
      <point x="189" y="601"/>
      <point x="189" y="605"/>
      <point x="189" y="609" type="curve" smooth="yes"/>
      <point x="189" y="634"/>
      <point x="162" y="642"/>
      <point x="137" y="642" type="curve" smooth="yes"/>
      <point x="113" y="642"/>
      <point x="98" y="631"/>
      <point x="94" y="612" type="curve" smooth="yes"/>
      <point x="82" y="553"/>
      <point x="64" y="453"/>
      <point x="58" y="421" type="curve" smooth="yes"/>
      <point x="57" y="417"/>
      <point x="57" y="413"/>
    </contour>
  </outline>
</glyph>
<glyph name="guilsinglright" format="1">
  <advance width="456"/>
  <unicode hex="203A"/>
  <outline>
    <contour>
      <point x="193" y="353" type="curve" smooth="yes"/>
      <point x="169" y="353"/>
      <point x="147" y="331"/>
      <point x="147" y="301" type="curve" smooth="yes"/>
      <point x="147" y="277"/>
      <point x="169" y="266"/>
      <point x="205" y="247" type="curve" smooth="yes"/>
      <point x="359" y="165" type="line"/>
      <point x="162" y="103" type="line" smooth="yes"/>
      <point x="137" y="95"/>
      <point x="124" y="84"/>
      <point x="124" y="64" type="curve" smooth="yes"/>
      <point x="124" y="32"/>
      <point x="140" y="12"/>
      <point x="161" y="12" type="curve" smooth="yes"/>
      <point x="170" y="12"/>
      <point x="182" y="15"/>
      <point x="197" y="19" type="curve" smooth="yes"/>
      <point x="387" y="77" type="line" smooth="yes"/>
      <point x="424" y="88"/>
      <point x="451" y="117"/>
      <point x="451" y="172" type="curve" smooth="yes"/>
      <point x="451" y="203"/>
      <point x="438" y="228"/>
      <point x="403" y="247" type="curve" smooth="yes"/>
      <point x="229" y="342" type="line" smooth="yes"/>
      <point x="215" y="349"/>
      <point x="204" y="353"/>
    </contour>
  </outline>
</glyph>
<glyph name="estimated" format="1">
  <advance width="526"/>
  <unicode hex="212E"/>
  <outline>
    <contour>
      <point x="188" y="260" type="curve"/>
      <point x="188" y="368"/>
      <point x="239" y="424"/>
      <point x="287" y="424" type="curve" smooth="yes"/>
      <point x="325" y="424"/>
      <point x="349" y="393"/>
      <point x="349" y="357" type="curve" smooth="yes"/>
      <point x="349" y="312"/>
      <point x="311" y="259"/>
      <point x="208" y="259" type="curve" smooth="yes"/>
      <point x="202" y="259"/>
      <point x="195" y="260"/>
    </contour>
    <contour>
      <point x="133" y="259" type="curve" smooth="yes"/>
      <point x="133" y="153"/>
      <point x="202" y="97"/>
      <point x="285" y="97" type="curve" smooth="yes"/>
      <point x="326" y="97"/>
      <point x="369" y="111"/>
      <point x="407" y="140" type="curve" smooth="yes"/>
      <point x="410" y="143"/>
      <point x="412" y="146"/>
      <point x="412" y="149" type="curve" smooth="yes"/>
      <point x="412" y="158"/>
      <point x="403" y="167"/>
      <point x="397" y="167" type="curve" smooth="yes"/>
      <point x="396" y="167"/>
      <point x="395" y="167"/>
      <point x="394" y="166" type="curve" smooth="yes"/>
      <point x="362" y="144"/>
      <point x="328" y="133"/>
      <point x="297" y="133" type="curve" smooth="yes"/>
      <point x="237" y="133"/>
      <point x="188" y="173"/>
      <point x="188" y="239" type="curve"/>
      <point x="204" y="237"/>
      <point x="218" y="237"/>
      <point x="232" y="237" type="curve" smooth="yes"/>
      <point x="344" y="237"/>
      <point x="402" y="288"/>
      <point x="402" y="348" type="curve" smooth="yes"/>
      <point x="402" y="390"/>
      <point x="376" y="447"/>
      <point x="300" y="447" type="curve" smooth="yes"/>
      <point x="220" y="447"/>
      <point x="133" y="392"/>
    </contour>
  </outline>
</glyph>
<glyph name="product" format="1">
  <advance width="772"/>
  <unicode hex="220F"/>
  <outline>
    <contour>
      <point x="593" y="-107" type="curve" smooth="yes"/>
      <point x="621" y="-107"/>
      <point x="657" y="-78"/>
      <point x="657" y="-27" type="curve" smooth="yes"/>
      <point x="657" y="-6"/>
      <point x="652" y="31"/>
      <point x="652" y="86" type="curve" smooth="yes"/>
      <point x="652" y="177"/>
      <point x="665" y="319"/>
      <point x="738" y="534" type="curve"/>
      <point x="780" y="534"/>
      <point x="844" y="535"/>
      <point x="865" y="537" type="curve" smooth="yes"/>
      <point x="885" y="539"/>
      <point x="902" y="569"/>
      <point x="902" y="596" type="curve" smooth="yes"/>
      <point x="902" y="618"/>
      <point x="890" y="637"/>
      <point x="860" y="637" type="curve" smooth="yes"/>
      <point x="650" y="637"/>
      <point x="503" y="643"/>
      <point x="380" y="643" type="curve" smooth="yes"/>
      <point x="290" y="643"/>
      <point x="212" y="640"/>
      <point x="133" y="629" type="curve" smooth="yes"/>
      <point x="108" y="626"/>
      <point x="96" y="602"/>
      <point x="96" y="579" type="curve" smooth="yes"/>
      <point x="96" y="554"/>
      <point x="110" y="530"/>
      <point x="134" y="530" type="curve" smooth="yes"/>
      <point x="136" y="530"/>
      <point x="138" y="531"/>
      <point x="141" y="531" type="curve" smooth="yes"/>
      <point x="182" y="537"/>
      <point x="203" y="542"/>
      <point x="272" y="542" type="curve" smooth="yes"/>
      <point x="289" y="542" type="line"/>
      <point x="161" y="273"/>
      <point x="136" y="83"/>
      <point x="136" y="0" type="curve" smooth="yes"/>
      <point x="136" y="-22"/>
      <point x="138" y="-36"/>
      <point x="140" y="-43" type="curve" smooth="yes"/>
      <point x="150" y="-85"/>
      <point x="178" y="-107"/>
      <point x="206" y="-107" type="curve" smooth="yes"/>
      <point x="234" y="-107"/>
      <point x="262" y="-84"/>
      <point x="270" y="-38" type="curve" smooth="yes"/>
      <point x="277" y="4"/>
      <point x="251" y="150"/>
      <point x="378" y="542" type="curve"/>
      <point x="409" y="540"/>
      <point x="444" y="541"/>
      <point x="484" y="540" type="curve" smooth="yes"/>
      <point x="545" y="538"/>
      <point x="606" y="537"/>
      <point x="647" y="536" type="curve"/>
      <point x="542" y="252"/>
      <point x="522" y="74"/>
      <point x="522" y="-3" type="curve" smooth="yes"/>
      <point x="522" y="-23"/>
      <point x="524" y="-36"/>
      <point x="525" y="-43" type="curve" smooth="yes"/>
      <point x="537" y="-85"/>
      <point x="565" y="-107"/>
    </contour>
  </outline>
</glyph>
<glyph name="minus" format="1">
  <advance width="416"/>
  <unicode hex="2212"/>
  <outline>
    <contour>
      <point x="107" y="193" type="curve" smooth="yes"/>
      <point x="313" y="193" type="line" smooth="yes"/>
      <point x="340" y="193"/>
      <point x="354" y="209"/>
      <point x="354" y="236" type="curve" smooth="yes"/>
      <point x="354" y="255"/>
      <point x="338" y="267"/>
      <point x="317" y="267" type="curve" smooth="yes"/>
      <point x="113" y="267" type="line" smooth="yes"/>
      <point x="88" y="267"/>
      <point x="61" y="254"/>
      <point x="61" y="228" type="curve" smooth="yes"/>
      <point x="61" y="205"/>
      <point x="84" y="193"/>
    </contour>
  </outline>
</glyph>
<glyph name="bulletoperator" format="1">
  <advance width="205"/>
  <unicode hex="2219"/>
  <outline>
    <contour>
      <point x="121" y="459" type="curve" smooth="yes"/>
      <point x="148" y="459"/>
      <point x="174" y="484"/>
      <point x="174" y="513" type="curve" smooth="yes"/>
      <point x="174" y="536"/>
      <point x="152" y="557"/>
      <point x="126" y="557" type="curve" smooth="yes"/>
      <point x="100" y="557"/>
      <point x="74" y="532"/>
      <point x="74" y="505" type="curve" smooth="yes"/>
      <point x="74" y="480"/>
      <point x="98" y="459"/>
    </contour>
  </outline>
</glyph>
<glyph name="lessequal" format="1">
  <advance width="526"/>
  <unicode hex="2264"/>
  <outline>
    <component base="less" xOffset="98" yOffset="44"/>
    <contour>
      <point x="193" y="45" type="line" smooth="yes"/>
      <point x="162" y="45"/>
      <point x="140" y="41"/>
      <point x="140" y="-3" type="curve" smooth="yes"/>
      <point x="140" y="-31"/>
      <point x="152" y="-38"/>
      <point x="194" y="-38" type="curve" smooth="yes"/>
      <point x="405" y="-36" type="line" smooth="yes"/>
      <point x="448" y="-36"/>
      <point x="461" y="-23"/>
      <point x="461" y="4" type="curve" smooth="yes"/>
      <point x="461" y="36"/>
      <point x="451" y="45"/>
      <point x="415" y="45" type="curve" smooth="yes"/>
    </contour>
  </outline>
</glyph>
<glyph name="caron.alt" format="1">
  <advance width="600"/>
  <outline>
    <contour>
      <point x="111" y="343" type="move" name="_caron.alt"/>
    </contour>
    <contour>
      <point x="153" y="428" type="curve" smooth="yes"/>
      <point x="195" y="467"/>
      <point x="231" y="509"/>
      <point x="263" y="554" type="curve" smooth="yes"/>
      <point x="270" y="564"/>
      <point x="273" y="574"/>
      <point x="273" y="584" type="curve" smooth="yes"/>
      <point x="273" y="614"/>
      <point x="243" y="638"/>
      <point x="218" y="638" type="curve" smooth="yes"/>
      <point x="205" y="638"/>
      <point x="192" y="631"/>
      <point x="187" y="615" type="curve" smooth="yes"/>
      <point x="169" y="561"/>
      <point x="140" y="495"/>
      <point x="112" y="448" type="curve" smooth="yes"/>
      <point x="108" y="441"/>
      <point x="106" y="436"/>
      <point x="106" y="431" type="curve" smooth="yes"/>
      <point x="106" y="421"/>
      <point x="114" y="415"/>
      <point x="124" y="415" type="curve" smooth="yes"/>
      <point x="133" y="415"/>
      <point x="143" y="419"/>
    </contour>
  </outline>
</glyph>
<glyph name="f_f" format="1">
  <advance width="511"/>
  <outline>
    <contour>
      <point x="353" y="247" type="curve"/>
      <point x="359" y="249"/>
      <point x="418" y="499"/>
      <point x="489" y="499" type="curve" smooth="yes"/>
      <point x="500" y="499"/>
      <point x="504" y="494"/>
      <point x="504" y="483" type="curve" smooth="yes"/>
      <point x="504" y="429"/>
      <point x="408" y="290"/>
    </contour>
    <contour>
      <point x="354" y="-65" type="curve" smooth="yes"/>
      <point x="342" y="-65"/>
      <point x="337" y="32"/>
      <point x="337" y="105" type="curve" smooth="yes"/>
      <point x="337" y="141" type="line" smooth="yes"/>
      <point x="337" y="145"/>
      <point x="337" y="145"/>
      <point x="336" y="163" type="curve"/>
      <point x="341" y="160" type="line"/>
      <point x="365" y="106"/>
      <point x="378" y="27"/>
      <point x="378" y="-15" type="curve" smooth="yes"/>
      <point x="378" y="-46"/>
      <point x="371" y="-65"/>
    </contour>
    <contour>
      <point x="111" y="-118" type="curve" smooth="yes"/>
      <point x="105" y="-118"/>
      <point x="101" y="-58"/>
      <point x="101" y="-12" type="curve" smooth="yes"/>
      <point x="101" y="47"/>
      <point x="107" y="105"/>
      <point x="109" y="162" type="curve"/>
      <point x="131" y="115"/>
      <point x="146" y="56"/>
      <point x="146" y="-16" type="curve" smooth="yes"/>
      <point x="146" y="-54"/>
      <point x="145" y="-118"/>
    </contour>
    <contour>
      <point x="96" y="-214" type="curve" smooth="yes"/>
      <point x="191" y="-214"/>
      <point x="229" y="-101"/>
      <point x="229" y="-43" type="curve" smooth="yes"/>
      <point x="229" y="19"/>
      <point x="209" y="79"/>
      <point x="196" y="131" type="curve"/>
      <point x="222" y="138"/>
      <point x="242" y="142"/>
      <point x="267" y="148" type="curve"/>
      <point x="265" y="123"/>
      <point x="265" y="96"/>
      <point x="265" y="70" type="curve" smooth="yes"/>
      <point x="265" y="18" type="line" smooth="yes"/>
      <point x="265" y="-66"/>
      <point x="278" y="-160"/>
      <point x="354" y="-160" type="curve" smooth="yes"/>
      <point x="441" y="-160"/>
      <point x="457" y="-79"/>
      <point x="457" y="-27" type="curve" smooth="yes"/>
      <point x="457" y="39"/>
      <point x="435" y="93"/>
      <point x="416" y="137" type="curve"/>
      <point x="492" y="144"/>
      <point x="595" y="153"/>
      <point x="595" y="247" type="curve" smooth="yes"/>
      <point x="595" y="268"/>
      <point x="588" y="277"/>
      <point x="577" y="277" type="curve"/>
      <point x="577" y="278.875"/>
      <point x="576.609" y="280.75"/>
      <point x="576.561" y="281.648" type="curve"/>
      <point x="526.707" y="241.76"/>
      <point x="476.856" y="201"/>
      <point x="428" y="201" type="curve" smooth="yes"/>
      <point x="417" y="201"/>
      <point x="405" y="203"/>
      <point x="394" y="208" type="curve"/>
      <point x="465" y="288"/>
      <point x="580" y="393"/>
      <point x="580" y="504" type="curve" smooth="yes"/>
      <point x="580" y="554"/>
      <point x="552" y="589"/>
      <point x="505" y="589" type="curve" smooth="yes"/>
      <point x="371" y="589"/>
      <point x="303" y="390"/>
      <point x="273" y="219" type="curve"/>
      <point x="257" y="212"/>
      <point x="225" y="200"/>
      <point x="195" y="200" type="curve" smooth="yes"/>
      <point x="185" y="200"/>
      <point x="175" y="201"/>
      <point x="166" y="205" type="curve"/>
      <point x="234" y="286"/>
      <point x="347" y="427"/>
      <point x="347" y="555" type="curve" smooth="yes"/>
      <point x="347" y="607"/>
      <point x="321" y="640"/>
      <point x="274" y="640" type="curve" smooth="yes"/>
      <point x="79" y="640"/>
      <point x="12" y="179"/>
      <point x="12" y="-13" type="curve" smooth="yes"/>
      <point x="12" y="-95"/>
      <point x="21" y="-214"/>
    </contour>
    <contour>
      <point x="130.504" y="228.393" type="curve" smooth="yes"/>
      <point x="145.191" y="270.624"/>
      <point x="195.839" y="550"/>
      <point x="267" y="550" type="curve" smooth="yes"/>
      <point x="276" y="550"/>
      <point x="279" y="538"/>
      <point x="279" y="520" type="curve" smooth="yes"/>
      <point x="279" y="446.168"/>
      <point x="190.403" y="298.671"/>
      <point x="133.388" y="226.491" type="curve" smooth="yes"/>
      <point x="132.64" y="227.076"/>
      <point x="131.368" y="228.021"/>
    </contour>
    <contour>
      <point x="576.561" y="281.648" type="curve"/>
      <point x="576.531" y="282.187"/>
      <point x="576.625" y="282.375"/>
      <point x="577" y="282" type="curve"/>
      <point x="576.854" y="281.883"/>
      <point x="576.707" y="281.766"/>
    </contour>
  </outline>
</glyph>
